<?xml version="1.0" encoding="utf-8"?>
<!-- Generator: Adobe Illustrator 23.0.1, SVG Export Plug-In . SVG Version: 6.00 Build 0)  -->
<svg version="1.1" id="Слой_1" xmlns="http://www.w3.org/2000/svg" xmlns:xlink="http://www.w3.org/1999/xlink" x="0px" y="0px"
	 viewBox="0 0 119 50" style="enable-background:new 0 0 119 50;" width="119" xml:space="preserve">
<style type="text/css">
	.st0{fill-rule:evenodd;clip-rule:evenodd;fill:#FFFFFF;filter:url(#Adobe_OpacityMaskFilter);}
	.st1{mask:url(#path-1-inside-1_51_465_1_);fill:url(#SVGID_1_);}
	.st2{fill:#FFFFFF;}
</style>
<defs>
	<filter id="Adobe_OpacityMaskFilter" filterUnits="userSpaceOnUse" x="-2" y="0" width="50" height="50">
		<feColorMatrix  type="matrix" values="1 0 0 0 0  0 1 0 0 0  0 0 1 0 0  0 0 0 1 0"/>
	</filter>
</defs>
<mask maskUnits="userSpaceOnUse" x="-2" y="0" width="50" height="50" id="path-1-inside-1_51_465_1_">
	<path class="st0" d="M13.8,2H46v32.2L32.2,48H0V15.8L13.8,2z"/>
</mask>
<linearGradient id="SVGID_1_" gradientUnits="userSpaceOnUse" x1="46" y1="54" x2="-3.600405e-06" y2="8" gradientTransform="matrix(1 0 0 -1 0 56)">
	<stop  offset="0" style="stop-color:#0DB6F4"/>
	<stop  offset="1" style="stop-color:#F81717"/>
</linearGradient>
<path class="st1" d="M46,2h2V0h-2V2z M13.8,2V0H13l-0.6,0.6L13.8,2z M46,34.2l1.4,1.4L48,35v-0.8H46z M32.2,48v2H33l0.6-0.6L32.2,48
	z M0,48h-2v2h2V48z M0,15.8l-1.4-1.4L-2,15v0.8H0z M46,0H13.8v4H46V0z M48,34.2V2h-4v32.2H48z M33.6,49.4l13.8-13.8l-2.8-2.8
	L30.8,46.6L33.6,49.4z M0,50h32.2v-4H0V50z M-2,15.8V48h4V15.8H-2z M12.4,0.6L-1.4,14.4l2.8,2.8L15.2,3.4L12.4,0.6z"/>
<rect x="16" y="11" class="st2" width="100" height="31"/>
<path d="M20.9,13.3h6.7L35.7,36h-5.5l-2-6h-8.3l-2,6h-5.4L20.9,13.3z M26.9,26.4l-2.9-8.5h-0.1l-2.9,8.5H26.9z M38,19.1h5.1v6.5h6.4
	v-6.5h5.1V36h-5.1v-7.1h-6.4V36H38V19.1z M59.1,19.1h5.1v6.9c0.4,0,0.7,0,0.9-0.1c0.2-0.1,0.5-0.3,0.7-0.6l4.9-6.1H76l-6.8,7.8
	c1,0.4,1.9,1.3,2.8,2.6l4.5,6.5h-5.9l-3.7-5.5c-0.4-0.6-0.8-1-1.2-1.2c-0.4-0.2-0.9-0.2-1.5-0.2V36h-5.1V19.1z M86.9,36.3
	c-1,0-1.9,0-2.6-0.1c-0.7-0.1-1.4-0.2-2.2-0.4c-0.8-0.2-1.5-0.6-2-1c-0.5-0.4-0.9-1.1-1.3-1.9c-0.3-0.8-0.5-1.7-0.5-2.8v-5
	c0-1.1,0.2-2.1,0.5-2.9c0.4-0.8,0.8-1.5,1.4-2c0.5-0.4,1.1-0.7,1.9-1c0.8-0.3,1.6-0.5,2.4-0.5c0.9,0,1.7-0.1,2.4-0.1
	c1.1,0,1.9,0,2.6,0.1c0.7,0,1.4,0.2,2.1,0.4c0.8,0.3,1.5,0.6,2,1c0.5,0.4,1,1.1,1.4,1.9c0.3,0.8,0.5,1.8,0.5,3v5
	c0,1.1-0.2,2-0.5,2.8c-0.3,0.8-0.8,1.4-1.3,1.9c-0.5,0.4-1.1,0.7-1.9,1c-0.8,0.2-1.6,0.4-2.3,0.5C88.8,36.3,87.9,36.3,86.9,36.3z
	 M86.9,33.2c1,0,1.7-0.1,2.2-0.2c0.5-0.2,0.8-0.4,1-0.7c0.2-0.3,0.3-0.8,0.3-1.4v-6.4c0-0.9-0.2-1.6-0.7-2c-0.5-0.4-1.4-0.6-2.8-0.6
	c-1.4,0-2.3,0.2-2.8,0.6c-0.5,0.4-0.7,1-0.7,2v6.4c0,0.6,0.1,1.1,0.3,1.4c0.2,0.3,0.6,0.6,1,0.7C85.3,33.1,86,33.2,86.9,33.2z
	 M99.5,19.1h4.8v1.7c0.3-0.7,0.9-1.3,1.8-1.6c0.9-0.3,2.2-0.5,4-0.5c1.5,0,2.6,0.1,3.5,0.4c0.9,0.2,1.6,0.6,2.1,1.1
	c0.4,0.5,0.7,1.1,0.9,1.7c0.2,0.6,0.2,1.4,0.2,2.5V30c0,1.7-0.2,3-0.7,3.9c-0.5,0.9-1.2,1.6-2.3,1.9c-1,0.4-2.4,0.6-4.1,0.6
	c-1.7,0-2.9-0.1-3.6-0.4s-1.2-0.8-1.4-1.6v9h-5.1V19.1z M108.1,33.2c1,0,1.8-0.1,2.3-0.2c0.5-0.1,0.9-0.4,1-0.7
	c0.2-0.4,0.3-0.9,0.3-1.6v-6.3c0-0.8-0.1-1.3-0.2-1.6c-0.2-0.4-0.5-0.6-1-0.7c-0.5-0.1-1.3-0.2-2.4-0.2c-1,0-1.7,0.1-2.2,0.2
	c-0.5,0.2-0.8,0.4-1,0.8c-0.2,0.4-0.2,0.9-0.2,1.5v6.3c0,0.7,0.1,1.2,0.2,1.6c0.2,0.3,0.5,0.6,1,0.7
	C106.4,33.1,107.1,33.2,108.1,33.2z"/>
</svg>
