<svg width="138" height="64" viewBox="0 0 138 64" fill="none" xmlns="http://www.w3.org/2000/svg">
<mask id="path-1-inside-1_51_473" fill="white">
<path fill-rule="evenodd" clip-rule="evenodd" d="M17.4 4H58V44.6L40.6 62H0V21.4L17.4 4Z"/>
</mask>
<path d="M58 4H60V2H58V4ZM17.4 4V2H16.5716L15.9858 2.58579L17.4 4ZM58 44.6L59.4142 46.0142L60 45.4284V44.6H58ZM40.6 62V64H41.4284L42.0142 63.4142L40.6 62ZM0 62H-2V64H0V62ZM0 21.4L-1.41421 19.9858L-2 20.5716V21.4H0ZM58 2H17.4V6H58V2ZM60 44.6V4H56V44.6H60ZM42.0142 63.4142L59.4142 46.0142L56.5858 43.1858L39.1858 60.5858L42.0142 63.4142ZM0 64H40.6V60H0V64ZM-2 21.4V62H2V21.4H-2ZM15.9858 2.58579L-1.41421 19.9858L1.41421 22.8142L18.8142 5.41421L15.9858 2.58579Z" fill="url(#paint0_linear_51_473)" mask="url(#path-1-inside-1_51_473)"/>
<rect x="17" y="15" width="100" height="40" fill="#374457"/>
<path d="M25.9769 20.04H33.5769L42.9369 46H36.6169L34.2969 39.16H24.8169L22.5369 46H16.3769L25.9769 20.04ZM32.9369 35L29.6569 25.24H29.4969L26.2169 35H32.9369ZM45.5756 26.64H51.4156V34.08H58.7356V26.64H64.5756V46H58.7356V37.92H51.4156V46H45.5756V26.64ZM69.6772 26.64H75.5172V34.48C75.9439 34.48 76.2905 34.4267 76.5572 34.32C76.8239 34.1867 77.0905 33.96 77.3572 33.64L82.9572 26.64H89.0372L81.2772 35.6C82.3705 36.1067 83.4372 37.1067 84.4772 38.6L89.6372 46H82.9172L78.6372 39.68C78.1572 38.9867 77.7039 38.5467 77.2772 38.36C76.8505 38.1733 76.2639 38.08 75.5172 38.08V46H69.6772V26.64ZM101.496 46.4C100.296 46.4 99.3096 46.36 98.5363 46.28C97.7629 46.2 96.9363 46.04 96.0563 45.8C95.0963 45.5333 94.3229 45.16 93.7363 44.68C93.1496 44.1733 92.6563 43.4667 92.2563 42.56C91.8563 41.68 91.6563 40.6133 91.6563 39.36V33.64C91.6563 32.36 91.8563 31.24 92.2563 30.28C92.6563 29.32 93.1763 28.5733 93.8163 28.04C94.3763 27.5867 95.1096 27.2133 96.0163 26.92C96.9496 26.6 97.8563 26.4 98.7363 26.32C99.7496 26.2667 100.67 26.24 101.496 26.24C102.723 26.24 103.696 26.28 104.416 26.36C105.163 26.4133 105.976 26.5733 106.856 26.84C107.816 27.1333 108.59 27.5333 109.176 28.04C109.79 28.5467 110.31 29.2667 110.736 30.2C111.136 31.16 111.336 32.3067 111.336 33.64V39.36C111.336 40.56 111.136 41.6133 110.736 42.52C110.363 43.4267 109.87 44.1333 109.256 44.64C108.723 45.0933 107.99 45.4667 107.056 45.76C106.15 46.0267 105.256 46.2 104.376 46.28C103.576 46.36 102.616 46.4 101.496 46.4ZM101.496 42.76C102.59 42.76 103.416 42.68 103.976 42.52C104.536 42.3333 104.923 42.0533 105.136 41.68C105.376 41.3067 105.496 40.76 105.496 40.04V32.72C105.496 31.6533 105.216 30.9067 104.656 30.48C104.096 30.0533 103.043 29.84 101.496 29.84C99.9496 29.84 98.8963 30.0533 98.3363 30.48C97.7763 30.9067 97.4963 31.6533 97.4963 32.72V40.04C97.4963 40.76 97.6029 41.3067 97.8163 41.68C98.0563 42.0533 98.4563 42.3333 99.0163 42.52C99.5763 42.68 100.403 42.76 101.496 42.76ZM115.888 26.64H121.408V28.56C121.755 27.7067 122.435 27.1067 123.448 26.76C124.461 26.4133 125.968 26.24 127.968 26.24C129.648 26.24 130.995 26.3733 132.008 26.64C133.048 26.9067 133.835 27.3333 134.368 27.92C134.875 28.5067 135.221 29.16 135.408 29.88C135.595 30.5733 135.688 31.5333 135.688 32.76V39.12C135.688 41.04 135.408 42.52 134.848 43.56C134.288 44.6 133.421 45.3333 132.248 45.76C131.101 46.1867 129.528 46.4 127.528 46.4C125.608 46.4 124.221 46.24 123.368 45.92C122.515 45.6 121.968 44.9733 121.728 44.04V54.32H115.888V26.64ZM125.728 42.76C126.875 42.76 127.741 42.68 128.328 42.52C128.915 42.36 129.315 42.08 129.528 41.68C129.741 41.28 129.848 40.68 129.848 39.88V32.72C129.848 31.84 129.755 31.2133 129.568 30.84C129.381 30.44 129.008 30.1733 128.448 30.04C127.888 29.9067 126.968 29.84 125.688 29.84C124.595 29.84 123.755 29.9333 123.168 30.12C122.608 30.3067 122.221 30.6 122.008 31C121.821 31.4 121.728 31.9733 121.728 32.72V39.88C121.728 40.68 121.821 41.28 122.008 41.68C122.221 42.08 122.608 42.36 123.168 42.52C123.728 42.68 124.581 42.76 125.728 42.76Z" fill="white"/>
<defs>
<linearGradient id="paint0_linear_51_473" x1="58" y1="4" x2="0" y2="62" gradientUnits="userSpaceOnUse">
<stop stop-color="#0DB6F4"/>
<stop offset="1" stop-color="#F81717"/>
</linearGradient>
</defs>
</svg>
