<svg width="6" height="12" viewBox="0 0 6 12" fill="none" xmlns="http://www.w3.org/2000/svg">
<path d="M5.74891 5.33822L1.33435 0.265572C1.26184 0.181421 1.17557 0.114629 1.08053 0.0690483C0.985484 0.0234675 0.883539 0 0.780576 0C0.677612 0 0.575667 0.0234675 0.480622 0.0690483C0.385577 0.114629 0.299313 0.181421 0.226806 0.265572C0.081538 0.433788 0 0.661341 0 0.898531C0 1.13572 0.081538 1.36327 0.226806 1.53149L4.0876 6.02056L0.226806 10.4647C0.081538 10.633 0 10.8605 0 11.0977C0 11.3349 0.081538 11.5624 0.226806 11.7307C0.299041 11.8155 0.385184 11.883 0.480241 11.9292C0.575299 11.9754 0.677382 11.9995 0.780576 12C0.88377 11.9995 0.985853 11.9754 1.08091 11.9292C1.17597 11.883 1.26211 11.8155 1.33435 11.7307L5.74891 6.65801C5.82808 6.57393 5.89126 6.4719 5.93447 6.35832C5.97769 6.24475 6 6.1221 6 5.99811C6 5.87412 5.97769 5.75148 5.93447 5.63791C5.89126 5.52433 5.82808 5.42229 5.74891 5.33822Z" fill="black"/>
</svg>
