<svg width="11" height="7" viewBox="0 0 11 7" fill="none" xmlns="http://www.w3.org/2000/svg">
<path d="M6.53247 5.86015L10.77 2.08682C10.8403 2.02484 10.8961 1.95111 10.9341 1.86987C10.9722 1.78863 10.9918 1.70149 10.9918 1.61348C10.9918 1.52548 10.9722 1.43834 10.9341 1.3571C10.8961 1.27586 10.8403 1.20213 10.77 1.14015C10.6295 1.01598 10.4394 0.946289 10.2412 0.946289C10.0431 0.946289 9.85299 1.01598 9.71247 1.14015L5.96247 4.44015L2.24997 1.14015C2.10945 1.01598 1.91936 0.946289 1.72122 0.946289C1.52308 0.946289 1.33299 1.01598 1.19247 1.14015C1.12161 1.20189 1.06523 1.27552 1.02661 1.35677C0.987984 1.43802 0.967885 1.52528 0.967473 1.61348C0.967885 1.70169 0.987984 1.78894 1.02661 1.87019C1.06523 1.95144 1.12161 2.02507 1.19247 2.08682L5.42997 5.86015C5.5002 5.92782 5.58544 5.98183 5.68032 6.01876C5.77519 6.0557 5.87765 6.07477 5.98122 6.07477C6.0848 6.07477 6.18725 6.0557 6.28213 6.01876C6.377 5.98183 6.46224 5.92782 6.53247 5.86015Z" fill="white"/>
</svg>
