<svg width="6" height="12" viewBox="0 0 6 12" fill="none" xmlns="http://www.w3.org/2000/svg">
<path d="M0.251094 5.33822L4.66565 0.265572C4.73816 0.181421 4.82443 0.114629 4.91947 0.0690483C5.01452 0.0234675 5.11646 0 5.21942 0C5.32239 0 5.42433 0.0234675 5.51938 0.0690483C5.61442 0.114629 5.70069 0.181421 5.77319 0.265572C5.91846 0.433789 6 0.661341 6 0.898531C6 1.13572 5.91846 1.36327 5.77319 1.53149L1.9124 6.02056L5.77319 10.4647C5.91846 10.633 6 10.8605 6 11.0977C6 11.3349 5.91846 11.5624 5.77319 11.7307C5.70096 11.8155 5.61482 11.883 5.51976 11.9292C5.4247 11.9754 5.32262 11.9995 5.21942 12C5.11623 11.9995 5.01415 11.9754 4.91909 11.9292C4.82403 11.883 4.73789 11.8155 4.66565 11.7307L0.251094 6.65801C0.171925 6.57393 0.108741 6.4719 0.065526 6.35832C0.0223107 6.24475 0 6.1221 0 5.99811C0 5.87412 0.0223107 5.75148 0.065526 5.63791C0.108741 5.52433 0.171925 5.42229 0.251094 5.33822Z" fill="black"/>
</svg>
