<svg width="33" height="40" viewBox="0 0 33 40" fill="none" xmlns="http://www.w3.org/2000/svg">
<path fill-rule="evenodd" clip-rule="evenodd" d="M5.92456 0.150232C3.44823 0.672966 1.49808 2.55812 0.827842 5.07718L0.651123 5.74125V19.9991V34.2569L0.827842 34.9209C1.5119 37.492 3.52604 39.3958 6.06987 39.8758C7.44612 40.1355 8.19839 39.9723 8.56417 39.335C8.70589 39.088 8.73792 38.9313 8.71683 38.5877C8.66948 37.817 8.13698 37.344 7.3144 37.3416C5.39839 37.3363 3.65409 35.8581 3.35144 33.9834C3.23769 33.2784 3.23769 6.71976 3.35144 6.01468C3.53909 4.85234 4.4073 3.65336 5.43815 3.13297C6.40112 2.64687 6.20651 2.65773 13.9787 2.65648L21.0562 2.65531L21.3964 2.47539C21.9815 2.16601 22.2454 1.43601 21.9889 0.836404C21.8588 0.532341 21.5117 0.195232 21.2125 0.0821852C21.0625 0.0254665 18.7021 0.000778991 13.7906 0.00452899C7.17565 0.00960712 6.53448 0.0214821 5.92456 0.150232ZM25.2188 0.174841C24.7303 0.421326 24.5032 0.83406 24.5385 1.41039C24.5859 2.18109 25.1184 2.65414 25.941 2.65648C27.857 2.66179 29.6013 4.14 29.9039 6.01468C30.0177 6.71976 30.0177 33.2784 29.9039 33.9834C29.7163 35.1458 28.8481 36.3448 27.8172 36.8652C26.8542 37.3512 27.0489 37.3404 19.2767 37.3416L12.1992 37.3428L11.8589 37.5227C11.0933 37.9276 10.9357 38.9185 11.535 39.5594C11.9638 40.018 11.624 39.9991 19.3899 39.9991C25.5653 39.9991 26.6207 39.9823 27.1855 39.8759C29.732 39.3955 31.7427 37.495 32.4275 34.9209L32.6042 34.2569V19.9991V5.74125L32.4275 5.07718C31.9657 3.34125 30.9249 1.92281 29.4289 0.990388C28.0545 0.133748 26.0641 -0.251799 25.2188 0.174841ZM9.47925 5.36468C9.0119 5.42937 8.3769 5.6425 7.98183 5.86726C7.13456 6.34922 6.36597 7.35257 6.11128 8.30906C5.96112 8.87304 5.96112 12.4532 6.11128 13.0172C6.44776 14.2808 7.4437 15.3344 8.73706 15.7948L9.24487 15.9756H16.6277H24.0105L24.5183 15.7948C25.8117 15.3344 26.8076 14.2808 27.1441 13.0172C27.2925 12.4597 27.2943 8.87289 27.1465 8.31937C26.8064 7.04593 25.8088 5.98734 24.5183 5.53039L24.0105 5.35062L16.8621 5.34148C12.9304 5.3364 9.60815 5.34687 9.47925 5.36468ZM23.5979 8.04937C23.7577 8.09375 23.9963 8.22078 24.1281 8.33172C24.5755 8.70812 24.5964 8.81359 24.5964 10.6867C24.5964 12.3326 24.5897 12.4077 24.4207 12.6561C24.1869 12.9995 23.9081 13.1973 23.5357 13.2837C23.1337 13.3769 10.1217 13.3769 9.71964 13.2837C9.34729 13.1973 9.06847 12.9995 8.83472 12.6561C8.66565 12.4077 8.65894 12.3326 8.65894 10.6867C8.65894 8.835 8.67589 8.74515 9.1012 8.34507C9.22315 8.23031 9.44604 8.10164 9.59644 8.05914C9.97956 7.95093 23.2102 7.94172 23.5979 8.04937ZM10.3491 17.4667C8.59519 17.8913 7.32714 19.5283 7.33269 21.3609C7.33511 22.1432 7.42698 22.5527 7.74573 23.2015C8.70542 25.155 11.2817 25.9723 13.2234 24.9392C13.7803 24.643 14.6699 23.7302 14.9297 23.1885C15.7175 21.5462 15.4175 19.7782 14.1367 18.5144C13.1162 17.5075 11.7463 17.1286 10.3491 17.4667ZM21.0188 17.4645C20.2965 17.6588 19.7364 17.9816 19.1968 18.5142C17.5444 20.1453 17.558 22.6949 19.2275 24.2723C19.7545 24.7701 20.2708 25.0685 20.9133 25.2467C23.0683 25.8442 25.3184 24.5507 25.8967 22.3819C26.0388 21.8489 26.0296 20.8221 25.8781 20.3062C25.4613 18.8873 24.3291 17.7885 22.9485 17.4631C22.3294 17.3172 21.5639 17.3177 21.0188 17.4645ZM11.8375 20.0819C11.9584 20.1276 12.172 20.2755 12.3121 20.4105C13.1818 21.2495 12.5641 22.7362 11.3474 22.7322C10.274 22.7286 9.63394 21.5919 10.1803 20.6597C10.4998 20.1144 11.2396 19.8566 11.8375 20.0819ZM22.612 20.1479C22.7881 20.2279 23.0149 20.4094 23.1158 20.5512C23.35 20.8801 23.4128 21.5639 23.2457 21.9639C22.8933 22.8073 21.6231 22.9984 21.0101 22.3003C20.3828 21.5859 20.5605 20.5944 21.391 20.1748C21.812 19.9621 22.1848 19.9539 22.612 20.1479ZM10.8074 26.7299C9.63792 26.8685 8.60886 27.5214 7.94191 28.5481C7.52011 29.1973 7.33081 29.8628 7.33081 30.6962C7.33081 31.8376 7.66823 32.6818 8.44948 33.4955C9.80847 34.9107 11.9453 35.1412 13.5808 34.0491C15.9375 32.4754 15.9446 28.9759 13.5944 27.3902C12.7422 26.8152 11.8571 26.6055 10.8074 26.7299ZM21.4647 26.7263C20.1612 26.8637 18.8664 27.8268 18.3203 29.0653C17.9462 29.9136 17.8671 30.7455 18.0761 31.6324C18.7736 34.5916 22.4308 35.745 24.664 33.71C25.5468 32.9055 26.0027 31.8973 26.0027 30.7494C26.0027 29.6467 25.6871 28.7982 24.9871 28.0187C24.1114 27.0436 22.8492 26.5805 21.4647 26.7263ZM12.1659 29.6023C12.6729 29.9633 12.8478 30.6898 12.5733 31.2943C12.1217 32.2887 10.7998 32.3484 10.1578 31.4034C10.0014 31.1731 9.97792 31.0579 10.0034 30.6444C10.0368 30.1019 10.1814 29.8432 10.6192 29.543C10.9836 29.2933 11.7744 29.3235 12.1659 29.6023ZM22.7275 29.5517C23.1539 29.839 23.3464 30.1912 23.3464 30.6836C23.3464 31.5234 22.8217 32.0668 22.011 32.0668C21.45 32.0668 21.0159 31.7995 20.7778 31.3077C20.3186 30.3591 20.9533 29.3766 22.0263 29.3748C22.353 29.3742 22.5308 29.4191 22.7275 29.5517Z" fill="#01B0F4"/>
<path fill-rule="evenodd" clip-rule="evenodd" d="M5.92456 0.150232C3.44823 0.672966 1.49808 2.55812 0.827842 5.07718L0.651123 5.74125V19.9991V34.2569L0.827842 34.9209C1.5119 37.492 3.52604 39.3958 6.06987 39.8758C7.44612 40.1355 8.19839 39.9723 8.56417 39.335C8.70589 39.088 8.73792 38.9313 8.71683 38.5877C8.66948 37.817 8.13698 37.344 7.3144 37.3416C5.39839 37.3363 3.65409 35.8581 3.35144 33.9834C3.23769 33.2784 3.23769 6.71976 3.35144 6.01468C3.53909 4.85234 4.4073 3.65336 5.43815 3.13297C6.40112 2.64687 6.20651 2.65773 13.9787 2.65648L21.0562 2.65531L21.3964 2.47539C21.9815 2.16601 22.2454 1.43601 21.9889 0.836404C21.8588 0.532341 21.5117 0.195232 21.2125 0.0821852C21.0625 0.0254665 18.7021 0.000778991 13.7906 0.00452899C7.17565 0.00960712 6.53448 0.0214821 5.92456 0.150232ZM25.2188 0.174841C24.7303 0.421326 24.5032 0.83406 24.5385 1.41039C24.5859 2.18109 25.1184 2.65414 25.941 2.65648C27.857 2.66179 29.6013 4.14 29.9039 6.01468C30.0177 6.71976 30.0177 33.2784 29.9039 33.9834C29.7163 35.1458 28.8481 36.3448 27.8172 36.8652C26.8542 37.3512 27.0489 37.3404 19.2767 37.3416L12.1992 37.3428L11.8589 37.5227C11.0933 37.9276 10.9357 38.9185 11.535 39.5594C11.9638 40.018 11.624 39.9991 19.3899 39.9991C25.5653 39.9991 26.6207 39.9823 27.1855 39.8759C29.732 39.3955 31.7427 37.495 32.4275 34.9209L32.6042 34.2569V19.9991V5.74125L32.4275 5.07718C31.9657 3.34125 30.9249 1.92281 29.4289 0.990388C28.0545 0.133748 26.0641 -0.251799 25.2188 0.174841ZM9.47925 5.36468C9.0119 5.42937 8.3769 5.6425 7.98183 5.86726C7.13456 6.34922 6.36597 7.35257 6.11128 8.30906C5.96112 8.87304 5.96112 12.4532 6.11128 13.0172C6.44776 14.2808 7.4437 15.3344 8.73706 15.7948L9.24487 15.9756H16.6277H24.0105L24.5183 15.7948C25.8117 15.3344 26.8076 14.2808 27.1441 13.0172C27.2925 12.4597 27.2943 8.87289 27.1465 8.31937C26.8064 7.04593 25.8088 5.98734 24.5183 5.53039L24.0105 5.35062L16.8621 5.34148C12.9304 5.3364 9.60815 5.34687 9.47925 5.36468ZM23.5979 8.04937C23.7577 8.09375 23.9963 8.22078 24.1281 8.33172C24.5755 8.70812 24.5964 8.81359 24.5964 10.6867C24.5964 12.3326 24.5897 12.4077 24.4207 12.6561C24.1869 12.9995 23.9081 13.1973 23.5357 13.2837C23.1337 13.3769 10.1217 13.3769 9.71964 13.2837C9.34729 13.1973 9.06847 12.9995 8.83472 12.6561C8.66565 12.4077 8.65894 12.3326 8.65894 10.6867C8.65894 8.835 8.67589 8.74515 9.1012 8.34507C9.22315 8.23031 9.44604 8.10164 9.59644 8.05914C9.97956 7.95093 23.2102 7.94172 23.5979 8.04937ZM10.3491 17.4667C8.59519 17.8913 7.32714 19.5283 7.33269 21.3609C7.33511 22.1432 7.42698 22.5527 7.74573 23.2015C8.70542 25.155 11.2817 25.9723 13.2234 24.9392C13.7803 24.643 14.6699 23.7302 14.9297 23.1885C15.7175 21.5462 15.4175 19.7782 14.1367 18.5144C13.1162 17.5075 11.7463 17.1286 10.3491 17.4667ZM21.0188 17.4645C20.2965 17.6588 19.7364 17.9816 19.1968 18.5142C17.5444 20.1453 17.558 22.6949 19.2275 24.2723C19.7545 24.7701 20.2708 25.0685 20.9133 25.2467C23.0683 25.8442 25.3184 24.5507 25.8967 22.3819C26.0388 21.8489 26.0296 20.8221 25.8781 20.3062C25.4613 18.8873 24.3291 17.7885 22.9485 17.4631C22.3294 17.3172 21.5639 17.3177 21.0188 17.4645ZM11.8375 20.0819C11.9584 20.1276 12.172 20.2755 12.3121 20.4105C13.1818 21.2495 12.5641 22.7362 11.3474 22.7322C10.274 22.7286 9.63394 21.5919 10.1803 20.6597C10.4998 20.1144 11.2396 19.8566 11.8375 20.0819ZM22.612 20.1479C22.7881 20.2279 23.0149 20.4094 23.1158 20.5512C23.35 20.8801 23.4128 21.5639 23.2457 21.9639C22.8933 22.8073 21.6231 22.9984 21.0101 22.3003C20.3828 21.5859 20.5605 20.5944 21.391 20.1748C21.812 19.9621 22.1848 19.9539 22.612 20.1479ZM10.8074 26.7299C9.63792 26.8685 8.60886 27.5214 7.94191 28.5481C7.52011 29.1973 7.33081 29.8628 7.33081 30.6962C7.33081 31.8376 7.66823 32.6818 8.44948 33.4955C9.80847 34.9107 11.9453 35.1412 13.5808 34.0491C15.9375 32.4754 15.9446 28.9759 13.5944 27.3902C12.7422 26.8152 11.8571 26.6055 10.8074 26.7299ZM21.4647 26.7263C20.1612 26.8637 18.8664 27.8268 18.3203 29.0653C17.9462 29.9136 17.8671 30.7455 18.0761 31.6324C18.7736 34.5916 22.4308 35.745 24.664 33.71C25.5468 32.9055 26.0027 31.8973 26.0027 30.7494C26.0027 29.6467 25.6871 28.7982 24.9871 28.0187C24.1114 27.0436 22.8492 26.5805 21.4647 26.7263ZM12.1659 29.6023C12.6729 29.9633 12.8478 30.6898 12.5733 31.2943C12.1217 32.2887 10.7998 32.3484 10.1578 31.4034C10.0014 31.1731 9.97792 31.0579 10.0034 30.6444C10.0368 30.1019 10.1814 29.8432 10.6192 29.543C10.9836 29.2933 11.7744 29.3235 12.1659 29.6023ZM22.7275 29.5517C23.1539 29.839 23.3464 30.1912 23.3464 30.6836C23.3464 31.5234 22.8217 32.0668 22.011 32.0668C21.45 32.0668 21.0159 31.7995 20.7778 31.3077C20.3186 30.3591 20.9533 29.3766 22.0263 29.3748C22.353 29.3742 22.5308 29.4191 22.7275 29.5517Z" fill="url(#paint0_linear_246_2)"/>
<defs>
<linearGradient id="paint0_linear_246_2" x1="32.6042" y1="1.36896e-05" x2="-1.34329" y2="1.77111" gradientUnits="userSpaceOnUse">
<stop stop-color="#00AFF3"/>
<stop offset="1" stop-color="#58DCF8"/>
</linearGradient>
</defs>
</svg>
