<?xml version="1.0" encoding="utf-8"?>
<!-- Generator: Adobe Illustrator 23.0.1, SVG Export Plug-In . SVG Version: 6.00 Build 0)  -->
<svg version="1.1" id="Слой_1" xmlns="http://www.w3.org/2000/svg" xmlns:xlink="http://www.w3.org/1999/xlink" x="0px" y="0px"
	 viewBox="0 0 30 30" style="enable-background:new 0 0 30 30;" xml:space="preserve">
<title></title>
<g id="_1">
	<path d="M22,30c-1.2,0-2.3-0.2-3.5-0.4c-3.9-0.9-7.9-3.3-11.3-6.7s-5.8-7.4-6.7-11.3c-1-4.1-0.3-7.6,2-9.9l0.7-0.7
		c1.2-1.2,3.2-1.2,4.4,0l3.7,3.7c1.2,1.2,1.2,3.2,0,4.4l-2.2,2.2c1.1,1.9,2.5,3.7,4.2,5.4s3.6,3.1,5.4,4.2l2.2-2.2
		c1.2-1.2,3.2-1.2,4.4,0c0,0,0,0,0,0l3.7,3.7c1.2,1.2,1.2,3.2,0,4.4l-0.7,0.7C26.8,29.2,24.6,30,22,30z M5.3,2.2
		c-0.2,0-0.5,0.1-0.6,0.3L4,3.2C2.3,4.9,1.8,7.6,2.6,11c0.8,3.5,3,7.2,6.1,10.3s6.8,5.3,10.3,6.1c3.3,0.8,6.1,0.3,7.8-1.4l0.7-0.7
		c0.4-0.4,0.4-0.9,0-1.3l-3.7-3.7c-0.4-0.4-0.9-0.4-1.3,0l-2.8,2.8c-0.3,0.3-0.9,0.4-1.3,0.2c-2.3-1.2-4.6-2.9-6.7-5s-3.8-4.4-5-6.7
		c-0.2-0.4-0.1-1,0.2-1.3l2.8-2.8c0.4-0.4,0.4-0.9,0-1.3L5.9,2.5C5.8,2.3,5.5,2.2,5.3,2.2z"/>
	<path d="M23.2,16.5c-0.6,0-1.1-0.5-1.1-1.1l0,0c0-4.1-3.3-7.4-7.4-7.4c-0.6,0-1.1-0.5-1.1-1.1s0.5-1.1,1.1-1.1l0,0
		c5.3,0,9.6,4.3,9.6,9.6C24.3,16,23.8,16.5,23.2,16.5C23.2,16.5,23.2,16.5,23.2,16.5z"/>
	<path d="M27.9,16.5c-0.6,0-1.1-0.5-1.1-1.1l0,0c0-6.7-5.4-12.1-12.1-12.1c-0.6,0-1.1-0.5-1.1-1.1S14,1,14.7,1l0,0
		C22.6,1,29,7.5,29,15.4C29,16,28.5,16.5,27.9,16.5L27.9,16.5z"/>
</g>
</svg>
