<svg width="30" height="22" viewBox="0 0 30 22" fill="none" xmlns="http://www.w3.org/2000/svg">
<path fill-rule="evenodd" clip-rule="evenodd" d="M2.33098 1.06603C2.1467 1.11067 1.83059 1.23067 1.62856 1.33269C1.40736 1.44437 1.10766 1.67241 0.875332 1.90579C0.654375 2.12774 0.423223 2.43108 0.334395 2.61566C0.249141 2.7929 0.138984 3.09507 0.0896485 3.28714C0.0123633 3.58819 0 4.37634 0 9.00237C0 13.6317 0.0123047 14.4157 0.089707 14.7128C0.139043 14.9023 0.262031 15.2122 0.36293 15.4016C0.463887 15.5909 0.648633 15.8619 0.773496 16.0038C0.89836 16.1457 1.16432 16.3692 1.36453 16.5006C1.56475 16.632 1.8999 16.7982 2.10938 16.8699L2.49023 17.0004L12.627 17.0167C19.0867 17.027 22.955 17.0117 23.291 16.9745C23.7149 16.9275 23.9103 16.8706 24.2871 16.6842C24.5449 16.5566 24.8818 16.3315 25.0359 16.1837C25.1899 16.036 25.4174 15.758 25.5416 15.5659C25.6658 15.3739 25.8166 15.0379 25.8768 14.8195C25.9802 14.4447 25.9863 14.1134 25.9863 8.94378V3.46526L25.8494 3.06882C25.7741 2.85073 25.6076 2.51534 25.4795 2.32345C25.3514 2.13155 25.1307 1.87263 24.9891 1.748C24.8476 1.62343 24.5729 1.43681 24.3788 1.33333C24.1846 1.22985 23.8472 1.10733 23.6291 1.0611C23.2928 0.989854 21.6686 0.977667 12.9492 0.980948C4.39342 0.98417 2.60971 0.998468 2.33098 1.06603ZM23.1856 3.02886C23.3402 3.06278 23.524 3.13784 23.594 3.19567C23.664 3.25351 23.776 3.39056 23.8429 3.50024C23.9635 3.69817 23.9644 3.73919 23.9646 9.00835L23.9648 14.3171L23.833 14.5108C23.7605 14.6173 23.6268 14.7596 23.5358 14.8271L23.3704 14.9496L13.0563 14.9648L2.74231 14.9799L2.5108 14.8498C2.38354 14.7783 2.22135 14.6264 2.15045 14.5124L2.02148 14.3051V9.00237V3.69964L2.15438 3.48595C2.22744 3.36847 2.35928 3.22345 2.44734 3.16368C2.60115 3.05933 2.98816 3.05394 12.3633 3.0254C17.729 3.00905 22.2958 2.98925 22.5118 2.98146C22.7277 2.9736 23.0309 2.99493 23.1856 3.02886ZM28.5252 5.01958C28.407 5.08204 28.2488 5.21933 28.1736 5.32462L28.0371 5.51605L28.0078 11.9028C27.9804 17.8807 27.9718 18.3017 27.8743 18.4801C27.817 18.585 27.6608 18.7432 27.5271 18.8317L27.284 18.9926L15.99 19.0219L4.69606 19.0512L4.53065 19.1738C4.43965 19.2412 4.30594 19.3835 4.2334 19.4901C4.14041 19.6267 4.10156 19.7694 4.10156 19.9748C4.10156 20.1597 4.14539 20.3437 4.22186 20.4798C4.28807 20.5975 4.43772 20.7593 4.55449 20.8393L4.76678 20.9848L15.9332 21.0011C24.0541 21.0129 27.2091 20.9992 27.5009 20.9509C27.7413 20.911 28.0851 20.7928 28.3589 20.6557C28.6896 20.4902 28.9104 20.3256 29.1588 20.0594C29.3476 19.8572 29.5743 19.5431 29.6626 19.3615C29.751 19.1798 29.8631 18.8785 29.9116 18.692C29.9878 18.3996 29.9999 17.474 29.9991 11.993L29.9981 5.63323L29.866 5.40003C29.7919 5.26931 29.6315 5.10888 29.5008 5.03482C29.3522 4.95067 29.172 4.90333 29.0039 4.90439C28.8589 4.90526 28.6435 4.95712 28.5252 5.01958ZM12.5977 4.99362C12.5171 5.0071 12.3062 5.04741 12.1289 5.08316C11.9517 5.11896 11.6499 5.2137 11.4584 5.29368C11.2669 5.37372 10.962 5.53978 10.781 5.66276C10.5998 5.78569 10.3253 6.01392 10.1708 6.16995C10.0163 6.32593 9.81188 6.56616 9.71666 6.70374C9.62145 6.84138 9.46705 7.11823 9.3736 7.31898C9.2802 7.51978 9.16248 7.84222 9.11209 8.03558C9.06035 8.23421 9.01893 8.64267 9.01694 8.9746C9.01477 9.34134 9.04992 9.70456 9.11057 9.9414C9.16401 10.1501 9.29643 10.5053 9.40477 10.7309C9.51317 10.9565 9.72944 11.2986 9.88535 11.4912C10.0413 11.6837 10.3172 11.9608 10.4985 12.1068C10.6798 12.2529 11.0019 12.4589 11.2144 12.5647C11.4269 12.6705 11.8029 12.8087 12.05 12.8718C12.3268 12.9427 12.6944 12.9867 13.0078 12.9867C13.3219 12.9867 13.6889 12.9426 13.9674 12.8714C14.2154 12.808 14.6217 12.6499 14.8703 12.5202C15.1189 12.3904 15.4855 12.1384 15.6851 11.9601C15.8846 11.7817 16.1697 11.4526 16.3185 11.2286C16.4674 11.0047 16.6699 10.6033 16.7684 10.3367C16.9179 9.93226 16.9523 9.74042 16.976 9.17815C16.9972 8.67577 16.9799 8.39997 16.9081 8.09417C16.8551 7.86858 16.7046 7.46224 16.5735 7.19124C16.3827 6.79667 16.2343 6.59687 15.8288 6.1887C15.4181 5.77538 15.2281 5.63317 14.8242 5.43694C14.5503 5.30388 14.1767 5.15716 13.994 5.11093C13.8113 5.0647 13.4554 5.0139 13.203 4.99802C12.9506 4.98208 12.6782 4.98015 12.5977 4.99362ZM13.8372 7.19634C14.0195 7.28095 14.2758 7.46066 14.4068 7.59566C14.5378 7.73066 14.7115 7.97716 14.7927 8.14339C14.874 8.30968 14.9571 8.60575 14.9774 8.80134C15.0039 9.05505 14.9862 9.25439 14.9157 9.49679C14.8614 9.6837 14.7555 9.93237 14.6805 10.0494C14.6054 10.1664 14.4555 10.3464 14.3472 10.4494C14.239 10.5524 13.9922 10.7097 13.7988 10.7989C13.5131 10.9308 13.3649 10.961 13.0078 10.9606C12.6509 10.9602 12.4997 10.9289 12.2031 10.7939C11.9733 10.6895 11.738 10.5212 11.569 10.3405C11.4212 10.1825 11.2431 9.92886 11.1732 9.77681C11.0746 9.56253 11.0459 9.38851 11.0455 9.00237C11.045 8.58776 11.0704 8.45036 11.1967 8.18206C11.2802 8.00482 11.4214 7.7736 11.5105 7.66819C11.5996 7.56284 11.7909 7.40728 11.9355 7.32249C12.0802 7.23771 12.2949 7.13265 12.4127 7.08894C12.5424 7.04083 12.8004 7.01599 13.0664 7.02601C13.3923 7.03825 13.5915 7.08232 13.8372 7.19634Z" fill="url(#paint0_linear_51_244)"/>
<defs>
<linearGradient id="paint0_linear_51_244" x1="29.9991" y1="0.980476" x2="-1.65618" y2="4.07762" gradientUnits="userSpaceOnUse">
<stop stop-color="#00AFF3"/>
<stop offset="1" stop-color="#58DCF8"/>
</linearGradient>
</defs>
</svg>
