<svg width="34" height="36" viewBox="0 0 34 36" fill="none" xmlns="http://www.w3.org/2000/svg">
<path fill-rule="evenodd" clip-rule="evenodd" d="M9.08432 0.238177C8.05768 0.361458 6.99768 0.790052 6.16565 1.41825C5.78448 1.70599 2.70557 4.90427 2.213 5.52411C1.643 6.2413 1.19917 7.31615 1.05425 8.32997C0.991043 8.7724 0.973074 12.0501 0.990886 19.8851L1.01581 30.8226L1.19542 31.4064C1.52596 32.4809 1.94354 33.1662 2.76768 33.9866C3.61151 34.8267 4.18081 35.171 5.31011 35.5244L6.01323 35.7444H15.1148C25.331 35.7444 24.7739 35.774 26.0246 35.1654C27.5907 34.4033 28.6617 33.1669 29.1775 31.5257C29.2975 31.1437 29.3615 30.696 29.3896 30.0413L29.4298 29.1038L30.8951 27.6194C31.9209 26.5802 32.4221 26.0125 32.5663 25.7264C33.0072 24.8512 33.003 24.9301 33.0042 17.4933C33.0049 13.2634 32.9756 10.4878 32.9274 10.2277C32.6548 8.75779 31.3654 7.5181 29.9464 7.36161L29.4507 7.30693L29.4032 6.13505C29.3504 4.83208 29.2162 4.27271 28.7357 3.35255C27.9907 1.92591 26.611 0.831146 24.981 0.373333C24.3765 0.203568 24.3249 0.202396 16.9898 0.188958C12.9292 0.181458 9.37182 0.203646 9.08432 0.238177ZM24.3699 2.70013C25.3684 2.96021 26.2171 3.63419 26.6569 4.51638C26.9795 5.16333 27.0789 5.68138 27.0515 6.57247L27.0289 7.30693L26.5992 7.3556C25.3189 7.50068 24.1702 8.43224 23.6996 9.70716L23.5185 10.1976L23.4923 16.9907C23.4755 21.3612 23.495 24.0197 23.5471 24.4452C23.6892 25.6067 23.8824 25.9075 25.5884 27.622L27.0679 29.1089V29.6564C27.0679 31.3419 26.0826 32.74 24.5608 33.2136C24.1059 33.3552 23.7016 33.3616 15.2332 33.3616C6.65573 33.3616 6.36589 33.3568 5.88472 33.2082C4.53221 32.7901 3.58284 31.6551 3.3987 30.2358C3.29768 29.4578 3.29675 9.54154 3.3976 8.75224C3.52745 7.73646 3.8094 7.29083 5.4244 5.54911C7.60339 3.19911 7.87971 2.97169 8.8855 2.70083C9.52346 2.52896 23.7104 2.52833 24.3699 2.70013ZM6.91167 10.8616V12.0335H10.4664H14.021V10.8616V9.68974H10.4664H6.91167V10.8616ZM30.0404 9.86576C30.5523 10.2108 30.6194 10.4343 30.65 11.8968L30.6774 13.2054H28.2867H25.896L25.8964 11.8577C25.8967 10.3515 25.9514 10.1568 26.4617 9.8456C26.6929 9.70466 26.8574 9.69029 28.2478 9.69005C29.7074 9.68974 29.7914 9.69802 30.0404 9.86576ZM6.91167 16.7991V17.971H13.4351H19.9585V16.7991V15.6272H13.4351H6.91167V16.7991ZM30.6617 20.0061C30.6617 23.6547 30.643 24.4202 30.5499 24.596C30.4883 24.712 29.9512 25.2909 29.3561 25.8825L28.2742 26.9579L27.2128 25.8825C26.6289 25.2909 26.1027 24.719 26.0432 24.6116C25.9556 24.4533 25.9307 23.5847 25.912 20.0218L25.8888 15.6272H28.2753H30.6617V20.0061ZM6.91167 21.5261V22.7375L13.4156 22.7176L19.9195 22.6976L19.941 21.5061L19.9626 20.3147H13.4371H6.91167V21.5261ZM6.91167 26.2522V27.4241H13.4351H19.9585V26.2522V25.0804H13.4351H6.91167V26.2522Z" fill="#01B0F4"/>
<path fill-rule="evenodd" clip-rule="evenodd" d="M9.08432 0.238177C8.05768 0.361458 6.99768 0.790052 6.16565 1.41825C5.78448 1.70599 2.70557 4.90427 2.213 5.52411C1.643 6.2413 1.19917 7.31615 1.05425 8.32997C0.991043 8.7724 0.973074 12.0501 0.990886 19.8851L1.01581 30.8226L1.19542 31.4064C1.52596 32.4809 1.94354 33.1662 2.76768 33.9866C3.61151 34.8267 4.18081 35.171 5.31011 35.5244L6.01323 35.7444H15.1148C25.331 35.7444 24.7739 35.774 26.0246 35.1654C27.5907 34.4033 28.6617 33.1669 29.1775 31.5257C29.2975 31.1437 29.3615 30.696 29.3896 30.0413L29.4298 29.1038L30.8951 27.6194C31.9209 26.5802 32.4221 26.0125 32.5663 25.7264C33.0072 24.8512 33.003 24.9301 33.0042 17.4933C33.0049 13.2634 32.9756 10.4878 32.9274 10.2277C32.6548 8.75779 31.3654 7.5181 29.9464 7.36161L29.4507 7.30693L29.4032 6.13505C29.3504 4.83208 29.2162 4.27271 28.7357 3.35255C27.9907 1.92591 26.611 0.831146 24.981 0.373333C24.3765 0.203568 24.3249 0.202396 16.9898 0.188958C12.9292 0.181458 9.37182 0.203646 9.08432 0.238177ZM24.3699 2.70013C25.3684 2.96021 26.2171 3.63419 26.6569 4.51638C26.9795 5.16333 27.0789 5.68138 27.0515 6.57247L27.0289 7.30693L26.5992 7.3556C25.3189 7.50068 24.1702 8.43224 23.6996 9.70716L23.5185 10.1976L23.4923 16.9907C23.4755 21.3612 23.495 24.0197 23.5471 24.4452C23.6892 25.6067 23.8824 25.9075 25.5884 27.622L27.0679 29.1089V29.6564C27.0679 31.3419 26.0826 32.74 24.5608 33.2136C24.1059 33.3552 23.7016 33.3616 15.2332 33.3616C6.65573 33.3616 6.36589 33.3568 5.88472 33.2082C4.53221 32.7901 3.58284 31.6551 3.3987 30.2358C3.29768 29.4578 3.29675 9.54154 3.3976 8.75224C3.52745 7.73646 3.8094 7.29083 5.4244 5.54911C7.60339 3.19911 7.87971 2.97169 8.8855 2.70083C9.52346 2.52896 23.7104 2.52833 24.3699 2.70013ZM6.91167 10.8616V12.0335H10.4664H14.021V10.8616V9.68974H10.4664H6.91167V10.8616ZM30.0404 9.86576C30.5523 10.2108 30.6194 10.4343 30.65 11.8968L30.6774 13.2054H28.2867H25.896L25.8964 11.8577C25.8967 10.3515 25.9514 10.1568 26.4617 9.8456C26.6929 9.70466 26.8574 9.69029 28.2478 9.69005C29.7074 9.68974 29.7914 9.69802 30.0404 9.86576ZM6.91167 16.7991V17.971H13.4351H19.9585V16.7991V15.6272H13.4351H6.91167V16.7991ZM30.6617 20.0061C30.6617 23.6547 30.643 24.4202 30.5499 24.596C30.4883 24.712 29.9512 25.2909 29.3561 25.8825L28.2742 26.9579L27.2128 25.8825C26.6289 25.2909 26.1027 24.719 26.0432 24.6116C25.9556 24.4533 25.9307 23.5847 25.912 20.0218L25.8888 15.6272H28.2753H30.6617V20.0061ZM6.91167 21.5261V22.7375L13.4156 22.7176L19.9195 22.6976L19.941 21.5061L19.9626 20.3147H13.4371H6.91167V21.5261ZM6.91167 26.2522V27.4241H13.4351H19.9585V26.2522V25.0804H13.4351H6.91167V26.2522Z" fill="url(#paint0_linear_246_3)"/>
<defs>
<linearGradient id="paint0_linear_246_3" x1="33.0043" y1="0.187512" x2="-0.989223" y2="2.18672" gradientUnits="userSpaceOnUse">
<stop stop-color="#00AFF3"/>
<stop offset="1" stop-color="#58DCF8"/>
</linearGradient>
</defs>
</svg>
