<svg width="37" height="36" viewBox="0 0 37 36" fill="none" xmlns="http://www.w3.org/2000/svg">
<path fill-rule="evenodd" clip-rule="evenodd" d="M5.94272 0.263012C4.64787 0.413637 3.43592 1.00996 2.4785 1.96731C1.48678 2.95903 0.931543 4.11817 0.769121 5.53551C0.660293 6.48575 0.660293 29.4931 0.769121 30.4433C0.931543 31.8607 1.48678 33.0198 2.4785 34.0115C3.47021 35.0032 4.62936 35.5585 6.0467 35.7209C6.46975 35.7693 9.50889 35.8009 13.7936 35.8013L20.8444 35.8019V34.591V33.38H13.4685C6.44889 33.38 6.06967 33.3729 5.61709 33.232C4.76795 32.9678 3.88115 32.2516 3.51646 31.5357C3.08795 30.6943 3.10998 31.4293 3.10998 17.9822C3.10998 6.05543 3.11561 5.5634 3.25717 5.10856C3.46436 4.44286 3.73834 4.0109 4.25029 3.54301C4.74701 3.08903 5.06365 2.90817 5.68279 2.72457C6.04295 2.61786 6.59522 2.59879 9.33514 2.59879H12.5631V7.40598C12.5631 12.6518 12.5536 12.536 13.0157 12.9247C13.4519 13.2918 13.5987 13.2785 16.1484 12.64L18.4976 12.0517L20.907 12.6528L23.3164 13.2539L23.7015 13.063C23.9958 12.9172 24.128 12.79 24.2623 12.5236L24.4381 12.175V7.38692V2.59879H27.6733C30.6291 2.59879 30.9497 2.61161 31.3841 2.74684C32.5747 3.11739 33.4475 4.05286 33.7747 5.30918C33.8712 5.67965 33.8912 6.49934 33.8912 10.0761V14.3957H35.1022H36.3131L36.3125 10.3136C36.3121 8.06848 36.2767 5.92496 36.2337 5.55012C36.0636 4.0652 35.5609 3.01848 34.5162 1.97379C33.4715 0.929105 32.4248 0.426449 30.9399 0.256293C30.1031 0.160434 6.77061 0.166683 5.94272 0.263012ZM22.0944 6.54411C22.0944 9.94387 22.0787 10.4894 21.9808 10.4894C21.9183 10.4894 21.1573 10.3136 20.2897 10.0988C19.4222 9.88395 18.6331 9.70817 18.5362 9.70817C18.4393 9.70817 17.6446 9.88371 16.7701 10.0983C15.8958 10.3129 15.1188 10.4887 15.0436 10.4889C14.9151 10.4894 14.9069 10.2497 14.9069 6.54411V2.59879H18.5006H22.0944V6.54411ZM27.7975 16.9364C25.018 17.5068 22.9054 19.5623 22.2411 22.343C22.0973 22.9445 22.0823 23.1864 22.1188 24.3175C22.1642 25.7287 22.2687 26.3294 22.6895 27.5988C23.3503 29.5922 24.5358 31.5437 26.2101 33.3945C26.898 34.155 28.0783 35.2572 28.5143 35.5464C28.8412 35.7632 29.3778 35.8024 29.6965 35.6326C30.0681 35.4348 31.3546 34.2474 32.0944 33.4194C34.4071 30.8311 35.7192 28.2831 36.1579 25.5285C36.2854 24.7272 36.2682 23.1304 36.1246 22.4626C35.5154 19.6282 33.3169 17.4778 30.4664 16.9281C29.7629 16.7925 28.4796 16.7964 27.7975 16.9364ZM30.4562 19.3632C31.5479 19.6842 32.5075 20.3944 33.1228 21.337C33.6177 22.0952 33.8204 22.7472 33.8709 23.7435C34.0071 26.4338 32.6076 29.4611 29.9125 32.3058C29.5563 32.6818 29.2199 32.9894 29.1651 32.9894C29.0405 32.9894 27.8494 31.7437 27.2239 30.9593C25.9776 29.3965 25.1398 27.768 24.6969 26.0472C24.5144 25.339 24.4824 25.0541 24.48 24.1222C24.4776 23.1692 24.5017 22.9536 24.6678 22.4464C24.9007 21.7352 25.4797 20.8499 26.0223 20.3752C26.6718 19.8071 27.6722 19.3443 28.5397 19.2108C28.9471 19.1481 30.0125 19.2329 30.4562 19.3632ZM28.5248 21.7454C28.1625 21.9775 27.925 22.5097 27.996 22.9304C28.0689 23.3615 28.504 23.813 28.9222 23.8914C29.5674 24.0125 30.2269 23.5603 30.3346 22.9229C30.4061 22.4999 30.1668 21.9566 29.8145 21.7418C29.4657 21.5291 28.8598 21.5308 28.5248 21.7454ZM7.32576 27.6183C6.86342 27.8514 6.58443 28.3741 6.66568 28.8549C6.73967 29.2925 7.19397 29.7498 7.62772 29.8231C8.26217 29.9303 8.88951 29.464 9.01678 28.7908C9.09326 28.3861 8.77928 27.8361 8.34732 27.6183C8.15561 27.5216 7.92576 27.4425 7.83654 27.4425C7.74732 27.4425 7.51748 27.5216 7.32576 27.6183ZM12.2 27.5254C12.0647 27.566 11.8467 27.7214 11.7155 27.8707C10.8794 28.823 11.8984 30.2349 13.0532 29.7241C13.498 29.5273 13.735 29.1552 13.735 28.6535C13.735 27.8407 12.9856 27.2901 12.2 27.5254Z" fill="#01B0F4"/>
<path fill-rule="evenodd" clip-rule="evenodd" d="M5.94272 0.263012C4.64787 0.413637 3.43592 1.00996 2.4785 1.96731C1.48678 2.95903 0.931543 4.11817 0.769121 5.53551C0.660293 6.48575 0.660293 29.4931 0.769121 30.4433C0.931543 31.8607 1.48678 33.0198 2.4785 34.0115C3.47021 35.0032 4.62936 35.5585 6.0467 35.7209C6.46975 35.7693 9.50889 35.8009 13.7936 35.8013L20.8444 35.8019V34.591V33.38H13.4685C6.44889 33.38 6.06967 33.3729 5.61709 33.232C4.76795 32.9678 3.88115 32.2516 3.51646 31.5357C3.08795 30.6943 3.10998 31.4293 3.10998 17.9822C3.10998 6.05543 3.11561 5.5634 3.25717 5.10856C3.46436 4.44286 3.73834 4.0109 4.25029 3.54301C4.74701 3.08903 5.06365 2.90817 5.68279 2.72457C6.04295 2.61786 6.59522 2.59879 9.33514 2.59879H12.5631V7.40598C12.5631 12.6518 12.5536 12.536 13.0157 12.9247C13.4519 13.2918 13.5987 13.2785 16.1484 12.64L18.4976 12.0517L20.907 12.6528L23.3164 13.2539L23.7015 13.063C23.9958 12.9172 24.128 12.79 24.2623 12.5236L24.4381 12.175V7.38692V2.59879H27.6733C30.6291 2.59879 30.9497 2.61161 31.3841 2.74684C32.5747 3.11739 33.4475 4.05286 33.7747 5.30918C33.8712 5.67965 33.8912 6.49934 33.8912 10.0761V14.3957H35.1022H36.3131L36.3125 10.3136C36.3121 8.06848 36.2767 5.92496 36.2337 5.55012C36.0636 4.0652 35.5609 3.01848 34.5162 1.97379C33.4715 0.929105 32.4248 0.426449 30.9399 0.256293C30.1031 0.160434 6.77061 0.166683 5.94272 0.263012ZM22.0944 6.54411C22.0944 9.94387 22.0787 10.4894 21.9808 10.4894C21.9183 10.4894 21.1573 10.3136 20.2897 10.0988C19.4222 9.88395 18.6331 9.70817 18.5362 9.70817C18.4393 9.70817 17.6446 9.88371 16.7701 10.0983C15.8958 10.3129 15.1188 10.4887 15.0436 10.4889C14.9151 10.4894 14.9069 10.2497 14.9069 6.54411V2.59879H18.5006H22.0944V6.54411ZM27.7975 16.9364C25.018 17.5068 22.9054 19.5623 22.2411 22.343C22.0973 22.9445 22.0823 23.1864 22.1188 24.3175C22.1642 25.7287 22.2687 26.3294 22.6895 27.5988C23.3503 29.5922 24.5358 31.5437 26.2101 33.3945C26.898 34.155 28.0783 35.2572 28.5143 35.5464C28.8412 35.7632 29.3778 35.8024 29.6965 35.6326C30.0681 35.4348 31.3546 34.2474 32.0944 33.4194C34.4071 30.8311 35.7192 28.2831 36.1579 25.5285C36.2854 24.7272 36.2682 23.1304 36.1246 22.4626C35.5154 19.6282 33.3169 17.4778 30.4664 16.9281C29.7629 16.7925 28.4796 16.7964 27.7975 16.9364ZM30.4562 19.3632C31.5479 19.6842 32.5075 20.3944 33.1228 21.337C33.6177 22.0952 33.8204 22.7472 33.8709 23.7435C34.0071 26.4338 32.6076 29.4611 29.9125 32.3058C29.5563 32.6818 29.2199 32.9894 29.1651 32.9894C29.0405 32.9894 27.8494 31.7437 27.2239 30.9593C25.9776 29.3965 25.1398 27.768 24.6969 26.0472C24.5144 25.339 24.4824 25.0541 24.48 24.1222C24.4776 23.1692 24.5017 22.9536 24.6678 22.4464C24.9007 21.7352 25.4797 20.8499 26.0223 20.3752C26.6718 19.8071 27.6722 19.3443 28.5397 19.2108C28.9471 19.1481 30.0125 19.2329 30.4562 19.3632ZM28.5248 21.7454C28.1625 21.9775 27.925 22.5097 27.996 22.9304C28.0689 23.3615 28.504 23.813 28.9222 23.8914C29.5674 24.0125 30.2269 23.5603 30.3346 22.9229C30.4061 22.4999 30.1668 21.9566 29.8145 21.7418C29.4657 21.5291 28.8598 21.5308 28.5248 21.7454ZM7.32576 27.6183C6.86342 27.8514 6.58443 28.3741 6.66568 28.8549C6.73967 29.2925 7.19397 29.7498 7.62772 29.8231C8.26217 29.9303 8.88951 29.464 9.01678 28.7908C9.09326 28.3861 8.77928 27.8361 8.34732 27.6183C8.15561 27.5216 7.92576 27.4425 7.83654 27.4425C7.74732 27.4425 7.51748 27.5216 7.32576 27.6183ZM12.2 27.5254C12.0647 27.566 11.8467 27.7214 11.7155 27.8707C10.8794 28.823 11.8984 30.2349 13.0532 29.7241C13.498 29.5273 13.735 29.1552 13.735 28.6535C13.735 27.8407 12.9856 27.2901 12.2 27.5254Z" fill="url(#paint0_linear_246_6)"/>
<defs>
<linearGradient id="paint0_linear_246_6" x1="36.3131" y1="0.187512" x2="-1.47787" y2="2.65637" gradientUnits="userSpaceOnUse">
<stop stop-color="#00AFF3"/>
<stop offset="1" stop-color="#58DCF8"/>
</linearGradient>
</defs>
</svg>
