<svg width="24" height="28" viewBox="0 0 24 28" fill="none" xmlns="http://www.w3.org/2000/svg">
<path fill-rule="evenodd" clip-rule="evenodd" d="M6.70882 3.18037C1.74722 5.66568 1.63232 5.72703 1.25463 6.09442C1.00238 6.33975 0.812243 6.59035 0.705368 6.81828C0.615485 7.01006 0.512946 7.33619 0.477497 7.54315C0.41861 7.88692 0.460329 8.29848 0.961774 12.3214C1.26353 14.7426 1.56048 16.9698 1.62166 17.2707C1.68283 17.5716 1.83435 18.1269 1.9584 18.5046C2.08238 18.8823 2.31406 19.4666 2.4732 19.8031C2.63234 20.1396 2.91552 20.6618 3.10261 20.9634C3.28964 21.265 3.64613 21.766 3.89486 22.0767C4.14353 22.3873 4.595 22.8797 4.89804 23.1707C5.20109 23.4618 5.66 23.8593 5.91781 24.0543C6.17562 24.2492 6.82162 24.6729 7.35335 24.9958C7.88509 25.3186 8.91869 25.9398 9.65023 26.3761C10.5184 26.894 11.0881 27.1961 11.2909 27.2463C11.4617 27.2886 11.7992 27.3209 12.0409 27.3181C12.3177 27.3149 12.6014 27.2701 12.8075 27.197C12.9874 27.1333 14.0935 26.508 15.2655 25.8076C16.4375 25.1072 17.6453 24.3495 17.9496 24.1238C18.2538 23.8981 18.7394 23.4855 19.0287 23.2068C19.318 22.9281 19.7219 22.4997 19.9263 22.2547C20.1308 22.0098 20.469 21.5537 20.678 21.2411C20.887 20.9285 21.2037 20.3775 21.3819 20.0165C21.56 19.6556 21.7876 19.1362 21.8877 18.8622C21.9877 18.5883 22.1468 18.061 22.241 17.6904C22.3681 17.1909 22.5564 15.8691 22.9688 12.5834C23.2749 10.1452 23.5249 8.03586 23.5245 7.89594C23.5242 7.75602 23.487 7.50324 23.442 7.33426C23.397 7.16527 23.3001 6.9016 23.2265 6.74832C23.153 6.59504 22.9311 6.30705 22.7334 6.10836C22.381 5.75404 22.2745 5.69727 17.2648 3.19332C13.66 1.3915 12.0999 0.639864 11.9664 0.640626C11.8354 0.641329 10.2179 1.42268 6.70882 3.18037ZM16.7577 4.93455C20.8395 6.98563 21.4622 7.31568 21.577 7.48906C21.6663 7.624 21.7088 7.77611 21.7088 7.96115C21.7088 8.11133 21.4717 10.1311 21.1819 12.4496C20.8921 14.768 20.6038 16.8759 20.5413 17.1337C20.4788 17.3915 20.3443 17.8398 20.2423 18.1298C20.1403 18.4198 19.9256 18.9208 19.765 19.2431C19.6045 19.5654 19.3256 20.0487 19.1452 20.3171C18.9648 20.5856 18.6263 21.0235 18.3931 21.2903C18.1599 21.5571 17.7934 21.9307 17.5785 22.1205C17.3638 22.3104 16.9815 22.6136 16.729 22.7942C16.4765 22.9749 15.3777 23.6604 14.2872 24.3177C12.3404 25.491 12.2987 25.5126 11.9823 25.5107C11.6676 25.5089 11.6111 25.4793 9.59808 24.2645C8.464 23.58 7.32886 22.8664 7.0755 22.6785C6.82214 22.4906 6.43712 22.1707 6.21986 21.9675C6.00265 21.7643 5.65818 21.3978 5.45433 21.153C5.25048 20.9082 4.9383 20.4838 4.76064 20.2099C4.58298 19.936 4.31914 19.4745 4.17441 19.1845C4.02963 18.8945 3.84002 18.4594 3.753 18.2177C3.66605 17.976 3.5307 17.5146 3.45236 17.1923C3.36716 16.8421 3.09775 14.9172 2.78275 12.4079C2.49289 10.0988 2.2557 8.09217 2.2557 7.94879C2.2557 7.77652 2.30041 7.62061 2.38754 7.48906C2.50232 7.31568 3.12505 6.98563 7.20687 4.93455C9.785 3.63904 11.9339 2.57908 11.9823 2.57908C12.0306 2.57908 14.1795 3.63904 16.7577 4.93455ZM13.4753 13.0929C12.4169 13.9481 11.5177 14.6351 11.4771 14.6195C11.4365 14.604 10.9672 14.2998 10.4343 13.9435C9.9013 13.5873 9.4424 13.2958 9.41433 13.2958C9.38632 13.2958 9.19261 13.5529 8.98378 13.8671C8.77502 14.1813 8.5598 14.5067 8.50554 14.5902L8.40681 14.742L9.84646 15.7001C11.1977 16.5994 11.303 16.6582 11.5609 16.6575C11.7121 16.6571 11.9059 16.619 11.9916 16.5729C12.0774 16.5269 13.1387 15.6898 14.35 14.7127C15.5615 13.7356 16.5526 12.9238 16.5526 12.9086C16.5526 12.8935 16.3133 12.5788 16.0209 12.2095C15.7285 11.8402 15.4691 11.538 15.4445 11.538C15.42 11.538 14.5338 12.2377 13.4753 13.0929Z" fill="url(#paint0_linear_51_239)"/>
<defs>
<linearGradient id="paint0_linear_51_239" x1="23.5245" y1="0.640634" x2="-0.97136" y2="2.02393" gradientUnits="userSpaceOnUse">
<stop stop-color="#00AFF3"/>
<stop offset="1" stop-color="#58DCF8"/>
</linearGradient>
</defs>
</svg>
