<svg width="41" height="40" viewBox="0 0 41 40" fill="none" xmlns="http://www.w3.org/2000/svg">
<path fill-rule="evenodd" clip-rule="evenodd" d="M19.0885 0.782287C17.8094 1.03315 16.6224 1.66776 15.6861 2.60127C14.9343 3.3508 14.4833 4.0194 14.1525 4.87502C13.7461 5.92612 13.6956 6.32518 13.6941 8.49908C13.6928 10.4005 13.6997 10.4931 13.8656 10.7881C14.1833 11.3535 14.8768 11.606 15.4517 11.3658C15.8573 11.1963 16.0295 11.0339 16.2021 10.6581C16.3277 10.3847 16.3458 10.1256 16.3473 8.58471C16.3485 7.27205 16.379 6.70869 16.4668 6.37151C16.8272 4.98776 17.7428 4.0094 19.1056 3.5519L19.6969 3.35346H26.9518C33.2143 3.35346 34.2696 3.36979 34.666 3.47307C35.9461 3.80651 36.9949 4.78893 37.4573 6.08783L37.6381 6.59565L37.6598 14.2774C37.6774 20.4971 37.6625 21.9478 37.5817 21.8991C37.5267 21.866 36.7841 21.3152 35.9314 20.675C35.0786 20.0349 34.2624 19.4616 34.1174 19.401C33.919 19.3181 33.4534 19.2913 32.2304 19.2927C30.4028 19.2946 30.1294 19.3563 29.7814 19.8449C29.5038 20.2348 29.4753 20.9558 29.7229 21.3203C29.8244 21.4697 30.026 21.6719 30.171 21.7696C30.42 21.9374 30.5096 21.9472 31.7908 21.9472H33.147L35.7441 23.8934C37.5988 25.2833 38.4361 25.8648 38.6732 25.9277C39.293 26.0921 39.9148 25.791 40.1853 25.1956C40.3234 24.8913 40.33 24.4692 40.331 15.8535C40.3318 10.0646 40.3035 6.64799 40.2521 6.32221C39.8876 4.0119 38.3122 2.02533 36.1619 1.16432C34.9664 0.685568 35.1838 0.696428 26.9494 0.705803C22.8164 0.71049 19.279 0.744943 19.0885 0.782287ZM6.06112 14.0557C3.70838 14.4083 1.5908 16.1004 0.77174 18.2824C0.326349 19.4691 0.333381 19.2935 0.333381 29.1701V38.2507L0.515021 38.5951C0.817365 39.1682 1.55221 39.4474 2.15518 39.2182C2.26033 39.1782 3.48432 38.2905 4.8751 37.2456L7.40369 35.3456L14.474 35.3042C21.5176 35.2629 21.5465 35.2621 22.1158 35.0877C24.1539 34.4633 25.7505 33.0243 26.5101 31.1271C26.9603 30.0029 26.974 29.8109 26.974 24.6324C26.974 19.4353 26.9618 19.2721 26.4901 18.1355C25.686 16.1981 24.0936 14.8031 21.994 14.1964L21.3881 14.0213L13.9271 14.0081C9.82362 14.0009 6.28393 14.0223 6.06112 14.0557ZM20.9584 16.7147C22.4414 16.9448 23.7703 18.1337 24.1748 19.5922C24.3058 20.0647 24.3178 20.4878 24.3178 24.6439C24.3178 29.6432 24.3174 29.6483 23.8271 30.5727C23.5056 31.1785 22.8456 31.8385 22.2392 32.1601C21.3004 32.658 21.4749 32.6479 13.8021 32.6492C8.73104 32.65 6.77057 32.6749 6.58143 32.7408C6.38658 32.8088 4.08237 34.4627 3.0851 35.2505C3.00416 35.3144 2.9894 33.8664 3.00705 27.6031L3.02885 19.8769L3.20494 19.4144C3.78619 17.8873 4.96416 16.9124 6.46533 16.716C7.18033 16.6224 20.3563 16.6213 20.9584 16.7147ZM7.61307 20.8276C7.47033 20.8985 7.2594 21.0799 7.14432 21.2309C6.96627 21.4642 6.93494 21.5823 6.93494 22.0192C6.93494 22.6285 7.11877 22.9522 7.60612 23.2008C7.90361 23.3526 8.04369 23.3565 12.4299 23.3358L16.9472 23.3144L17.2424 23.0892C17.9364 22.5597 17.9364 21.491 17.2424 20.9614L16.9472 20.7363L12.4099 20.7175C8.32744 20.7006 7.84643 20.7117 7.61307 20.8276ZM7.63033 26.1585C7.16885 26.3681 6.94666 26.7193 6.91127 27.2954C6.8869 27.6914 6.91158 27.8104 7.06479 28.0338C7.16526 28.1802 7.34666 28.3735 7.46799 28.4635C7.68158 28.6217 7.77221 28.6269 10.3334 28.6269C12.8828 28.6269 12.986 28.6211 13.1939 28.4658C13.6196 28.148 13.7318 27.9155 13.7318 27.3517C13.7318 26.7232 13.5346 26.3848 13.0364 26.1585C12.7466 26.0269 12.4903 26.0131 10.3334 26.0131C8.17643 26.0131 7.92018 26.0269 7.63033 26.1585Z" fill="#01B0F4"/>
<path fill-rule="evenodd" clip-rule="evenodd" d="M19.0885 0.782287C17.8094 1.03315 16.6224 1.66776 15.6861 2.60127C14.9343 3.3508 14.4833 4.0194 14.1525 4.87502C13.7461 5.92612 13.6956 6.32518 13.6941 8.49908C13.6928 10.4005 13.6997 10.4931 13.8656 10.7881C14.1833 11.3535 14.8768 11.606 15.4517 11.3658C15.8573 11.1963 16.0295 11.0339 16.2021 10.6581C16.3277 10.3847 16.3458 10.1256 16.3473 8.58471C16.3485 7.27205 16.379 6.70869 16.4668 6.37151C16.8272 4.98776 17.7428 4.0094 19.1056 3.5519L19.6969 3.35346H26.9518C33.2143 3.35346 34.2696 3.36979 34.666 3.47307C35.9461 3.80651 36.9949 4.78893 37.4573 6.08783L37.6381 6.59565L37.6598 14.2774C37.6774 20.4971 37.6625 21.9478 37.5817 21.8991C37.5267 21.866 36.7841 21.3152 35.9314 20.675C35.0786 20.0349 34.2624 19.4616 34.1174 19.401C33.919 19.3181 33.4534 19.2913 32.2304 19.2927C30.4028 19.2946 30.1294 19.3563 29.7814 19.8449C29.5038 20.2348 29.4753 20.9558 29.7229 21.3203C29.8244 21.4697 30.026 21.6719 30.171 21.7696C30.42 21.9374 30.5096 21.9472 31.7908 21.9472H33.147L35.7441 23.8934C37.5988 25.2833 38.4361 25.8648 38.6732 25.9277C39.293 26.0921 39.9148 25.791 40.1853 25.1956C40.3234 24.8913 40.33 24.4692 40.331 15.8535C40.3318 10.0646 40.3035 6.64799 40.2521 6.32221C39.8876 4.0119 38.3122 2.02533 36.1619 1.16432C34.9664 0.685568 35.1838 0.696428 26.9494 0.705803C22.8164 0.71049 19.279 0.744943 19.0885 0.782287ZM6.06112 14.0557C3.70838 14.4083 1.5908 16.1004 0.77174 18.2824C0.326349 19.4691 0.333381 19.2935 0.333381 29.1701V38.2507L0.515021 38.5951C0.817365 39.1682 1.55221 39.4474 2.15518 39.2182C2.26033 39.1782 3.48432 38.2905 4.8751 37.2456L7.40369 35.3456L14.474 35.3042C21.5176 35.2629 21.5465 35.2621 22.1158 35.0877C24.1539 34.4633 25.7505 33.0243 26.5101 31.1271C26.9603 30.0029 26.974 29.8109 26.974 24.6324C26.974 19.4353 26.9618 19.2721 26.4901 18.1355C25.686 16.1981 24.0936 14.8031 21.994 14.1964L21.3881 14.0213L13.9271 14.0081C9.82362 14.0009 6.28393 14.0223 6.06112 14.0557ZM20.9584 16.7147C22.4414 16.9448 23.7703 18.1337 24.1748 19.5922C24.3058 20.0647 24.3178 20.4878 24.3178 24.6439C24.3178 29.6432 24.3174 29.6483 23.8271 30.5727C23.5056 31.1785 22.8456 31.8385 22.2392 32.1601C21.3004 32.658 21.4749 32.6479 13.8021 32.6492C8.73104 32.65 6.77057 32.6749 6.58143 32.7408C6.38658 32.8088 4.08237 34.4627 3.0851 35.2505C3.00416 35.3144 2.9894 33.8664 3.00705 27.6031L3.02885 19.8769L3.20494 19.4144C3.78619 17.8873 4.96416 16.9124 6.46533 16.716C7.18033 16.6224 20.3563 16.6213 20.9584 16.7147ZM7.61307 20.8276C7.47033 20.8985 7.2594 21.0799 7.14432 21.2309C6.96627 21.4642 6.93494 21.5823 6.93494 22.0192C6.93494 22.6285 7.11877 22.9522 7.60612 23.2008C7.90361 23.3526 8.04369 23.3565 12.4299 23.3358L16.9472 23.3144L17.2424 23.0892C17.9364 22.5597 17.9364 21.491 17.2424 20.9614L16.9472 20.7363L12.4099 20.7175C8.32744 20.7006 7.84643 20.7117 7.61307 20.8276ZM7.63033 26.1585C7.16885 26.3681 6.94666 26.7193 6.91127 27.2954C6.8869 27.6914 6.91158 27.8104 7.06479 28.0338C7.16526 28.1802 7.34666 28.3735 7.46799 28.4635C7.68158 28.6217 7.77221 28.6269 10.3334 28.6269C12.8828 28.6269 12.986 28.6211 13.1939 28.4658C13.6196 28.148 13.7318 27.9155 13.7318 27.3517C13.7318 26.7232 13.5346 26.3848 13.0364 26.1585C12.7466 26.0269 12.4903 26.0131 10.3334 26.0131C8.17643 26.0131 7.92018 26.0269 7.63033 26.1585Z" fill="url(#paint0_linear_246_4)"/>
<defs>
<linearGradient id="paint0_linear_246_4" x1="40.3311" y1="0.703138" x2="-2.08452" y2="3.5739" gradientUnits="userSpaceOnUse">
<stop stop-color="#00AFF3"/>
<stop offset="1" stop-color="#58DCF8"/>
</linearGradient>
</defs>
</svg>
