<svg width="30" height="40" viewBox="0 0 30 40" fill="none" xmlns="http://www.w3.org/2000/svg">
<path fill-rule="evenodd" clip-rule="evenodd" d="M5.58594 0.147052C3.10961 0.669787 1.15945 2.55494 0.489219 5.07401L0.3125 5.73807V19.9959V34.2537L0.489219 34.9178C1.05891 37.059 2.54063 38.7399 4.57031 39.5474C5.70891 40.0003 5.60586 39.9959 14.9609 39.9959C22.4421 39.9959 23.6209 39.9802 24.1906 39.8727C26.7371 39.3924 28.7478 37.4918 29.4327 34.9178L29.6094 34.2537V19.9959V5.73807L29.4327 5.07401C29.2177 4.26596 28.8223 3.41393 28.3646 2.77252C27.671 1.80057 26.4383 0.846505 25.3436 0.434474C24.1624 -0.0101353 24.2966 -0.00458845 14.8938 0.00134905C6.89195 0.00642717 6.2007 0.0172865 5.58594 0.147052ZM23.8599 2.77244C25.2352 3.09658 26.3516 4.13783 26.7782 5.49432L26.9531 6.05057V19.9959V33.9412L26.7782 34.4974C26.3516 35.8539 25.2352 36.8952 23.8599 37.2193C23.1082 37.3965 6.81367 37.3965 6.06195 37.2193C4.68664 36.8952 3.57031 35.8539 3.14367 34.4974L2.96875 33.9412V19.9959V6.05057L3.1418 5.50041C3.57062 4.13752 4.66609 3.10596 6.03766 2.77346C6.73406 2.60463 23.144 2.60369 23.8599 2.77244ZM6.40625 5.39955C6.07648 5.51807 5.68297 5.91276 5.57828 6.22994C5.46164 6.5833 5.53039 7.14947 5.72125 7.40713C5.80516 7.52041 5.99 7.69221 6.13203 7.78885C6.38227 7.95916 6.44891 7.96463 8.28125 7.96463C10.1187 7.96463 10.1797 7.95963 10.4358 7.78697C10.848 7.50924 11.0547 7.14463 11.0547 6.69533C11.0547 6.18471 10.8664 5.80994 10.482 5.55533L10.1681 5.34744L8.40438 5.33143C7.29883 5.32135 6.55312 5.34682 6.40625 5.39955ZM11.5222 32.1718C10.5684 32.6786 10.6351 34.0813 11.6345 34.5353C11.927 34.6681 12.1998 34.6799 14.9609 34.6799C18.3056 34.6799 18.3659 34.6716 18.8088 34.1453C19.297 33.5649 19.1223 32.5881 18.4577 32.183C18.2146 32.0347 18.0584 32.0277 14.9988 32.0274C12.0298 32.0271 11.7745 32.0378 11.5222 32.1718Z" fill="#01B0F4"/>
<path fill-rule="evenodd" clip-rule="evenodd" d="M5.58594 0.147052C3.10961 0.669787 1.15945 2.55494 0.489219 5.07401L0.3125 5.73807V19.9959V34.2537L0.489219 34.9178C1.05891 37.059 2.54063 38.7399 4.57031 39.5474C5.70891 40.0003 5.60586 39.9959 14.9609 39.9959C22.4421 39.9959 23.6209 39.9802 24.1906 39.8727C26.7371 39.3924 28.7478 37.4918 29.4327 34.9178L29.6094 34.2537V19.9959V5.73807L29.4327 5.07401C29.2177 4.26596 28.8223 3.41393 28.3646 2.77252C27.671 1.80057 26.4383 0.846505 25.3436 0.434474C24.1624 -0.0101353 24.2966 -0.00458845 14.8938 0.00134905C6.89195 0.00642717 6.2007 0.0172865 5.58594 0.147052ZM23.8599 2.77244C25.2352 3.09658 26.3516 4.13783 26.7782 5.49432L26.9531 6.05057V19.9959V33.9412L26.7782 34.4974C26.3516 35.8539 25.2352 36.8952 23.8599 37.2193C23.1082 37.3965 6.81367 37.3965 6.06195 37.2193C4.68664 36.8952 3.57031 35.8539 3.14367 34.4974L2.96875 33.9412V19.9959V6.05057L3.1418 5.50041C3.57062 4.13752 4.66609 3.10596 6.03766 2.77346C6.73406 2.60463 23.144 2.60369 23.8599 2.77244ZM6.40625 5.39955C6.07648 5.51807 5.68297 5.91276 5.57828 6.22994C5.46164 6.5833 5.53039 7.14947 5.72125 7.40713C5.80516 7.52041 5.99 7.69221 6.13203 7.78885C6.38227 7.95916 6.44891 7.96463 8.28125 7.96463C10.1187 7.96463 10.1797 7.95963 10.4358 7.78697C10.848 7.50924 11.0547 7.14463 11.0547 6.69533C11.0547 6.18471 10.8664 5.80994 10.482 5.55533L10.1681 5.34744L8.40438 5.33143C7.29883 5.32135 6.55312 5.34682 6.40625 5.39955ZM11.5222 32.1718C10.5684 32.6786 10.6351 34.0813 11.6345 34.5353C11.927 34.6681 12.1998 34.6799 14.9609 34.6799C18.3056 34.6799 18.3659 34.6716 18.8088 34.1453C19.297 33.5649 19.1223 32.5881 18.4577 32.183C18.2146 32.0347 18.0584 32.0277 14.9988 32.0274C12.0298 32.0271 11.7745 32.0378 11.5222 32.1718Z" fill="url(#paint0_linear_246_5)"/>
<defs>
<linearGradient id="paint0_linear_246_5" x1="29.6094" y1="1.36885e-05" x2="-1.52958" y2="1.48965" gradientUnits="userSpaceOnUse">
<stop stop-color="#00AFF3"/>
<stop offset="1" stop-color="#58DCF8"/>
</linearGradient>
</defs>
</svg>
