<svg width="18" height="19" viewBox="0 0 18 19" fill="none" xmlns="http://www.w3.org/2000/svg">
<path fill-rule="evenodd" clip-rule="evenodd" d="M17.4853 10.25C17.8995 10.25 18.2353 9.91426 18.2353 9.50004C18.2353 9.08583 17.8995 8.75004 17.4853 8.75004L9.75 8.75004L9.75 1.01476C9.75 0.600549 9.41421 0.264762 9 0.264762C8.58579 0.264763 8.25 0.600549 8.25 1.01476L8.25 8.75004L0.514718 8.75004C0.100505 8.75004 -0.235281 9.08583 -0.235282 9.50004C-0.235281 9.91426 0.100505 10.25 0.514718 10.25L8.25 10.25L8.25 17.9853C8.25 18.3995 8.58579 18.7353 9 18.7353C9.41421 18.7353 9.75 18.3995 9.75 17.9853L9.75 10.25L17.4853 10.25Z" fill="#01B0F4"/>
</svg>
