<svg width="18" height="18" viewBox="0 0 18 18" fill="none" xmlns="http://www.w3.org/2000/svg">
<path d="M7.41 10.5902L7.2975 10.5002L7.1625 10.4252L7.0275 10.3877C6.90701 10.3636 6.78243 10.3695 6.66473 10.4048C6.54703 10.4401 6.43981 10.5038 6.3525 10.5902C6.27831 10.6582 6.22169 10.7431 6.1875 10.8377C6.14782 10.9275 6.12732 11.0246 6.12732 11.1227C6.12732 11.2209 6.14782 11.318 6.1875 11.4077C6.26809 11.588 6.41228 11.7322 6.5925 11.8127C6.68267 11.8512 6.77949 11.8716 6.8775 11.8727C6.97786 11.8709 7.07701 11.8505 7.17 11.8127C7.26141 11.7765 7.34345 11.7201 7.41 11.6477C7.48015 11.5793 7.53621 11.4978 7.575 11.4077C7.61086 11.3171 7.62869 11.2203 7.6275 11.1227C7.63003 11.0244 7.60949 10.9268 7.5675 10.8377C7.53314 10.745 7.47945 10.6606 7.41 10.5902ZM2.6325 6.57024C2.73173 6.56983 2.82989 6.54973 2.9213 6.51111C3.0127 6.47249 3.09554 6.41611 3.165 6.34524L6.345 3.16524C6.48469 3.02472 6.56309 2.83463 6.56309 2.63649C6.56309 2.43835 6.48469 2.24826 6.345 2.10774C6.20448 1.96805 6.01439 1.88965 5.81625 1.88965C5.61811 1.88965 5.42802 1.96805 5.2875 2.10774L2.1075 5.28774C1.96781 5.42827 1.8894 5.61835 1.8894 5.81649C1.8894 6.01463 1.96781 6.20472 2.1075 6.34524C2.24597 6.48655 2.43467 6.56743 2.6325 6.57024ZM15.8925 11.6552C15.752 11.5156 15.5619 11.4371 15.3637 11.4371C15.1656 11.4371 14.9755 11.5156 14.835 11.6552L11.655 14.8352C11.5497 14.9397 11.4777 15.073 11.4482 15.2184C11.4186 15.3638 11.4329 15.5146 11.489 15.6519C11.5452 15.7892 11.6409 15.9067 11.7639 15.9896C11.8869 16.0725 12.0317 16.1171 12.18 16.1177C12.2792 16.1173 12.3774 16.0972 12.4688 16.0586C12.5602 16.02 12.643 15.9636 12.7125 15.8927L15.8925 12.7502C15.9674 12.6801 16.0272 12.5953 16.068 12.5011C16.1088 12.4069 16.1299 12.3054 16.1299 12.2027C16.1299 12.1001 16.1088 11.9985 16.068 11.9044C16.0272 11.8102 15.9674 11.7254 15.8925 11.6552ZM16.02 7.41024C16.0215 6.81478 15.7868 6.24302 15.3675 5.82024L12.18 2.63274C11.7508 2.22549 11.1817 1.99845 10.59 1.99845C9.99833 1.99845 9.42921 2.22549 9 2.63274L2.6325 9.00024C2.21115 9.42212 1.97448 9.99399 1.97448 10.5902C1.97448 11.1865 2.21115 11.7584 2.6325 12.1802L5.82 15.3677C6.24188 15.7891 6.81375 16.0258 7.41 16.0258C8.00625 16.0258 8.57812 15.7891 9 15.3677L15.3675 9.00024C15.7868 8.57747 16.0215 8.0057 16.02 7.41024ZM14.3025 7.94274L7.9425 14.3027C7.87278 14.373 7.78983 14.4288 7.69843 14.4669C7.60704 14.505 7.50901 14.5246 7.41 14.5246C7.31099 14.5246 7.21296 14.505 7.12157 14.4669C7.03017 14.4288 6.94722 14.373 6.8775 14.3027L3.6975 11.1227C3.6272 11.053 3.57141 10.9701 3.53333 10.8787C3.49525 10.7873 3.47565 10.6893 3.47565 10.5902C3.47565 10.4912 3.49525 10.3932 3.53333 10.3018C3.57141 10.2104 3.6272 10.1275 3.6975 10.0577L10.0575 3.69774C10.1272 3.62745 10.2102 3.57165 10.3016 3.53357C10.393 3.4955 10.491 3.47589 10.59 3.47589C10.689 3.47589 10.787 3.4955 10.8784 3.53357C10.9698 3.57165 11.0528 3.62745 11.1225 3.69774L14.3025 6.87774C14.3728 6.94747 14.4286 7.03042 14.4667 7.12181C14.5047 7.21321 14.5243 7.31123 14.5243 7.41024C14.5243 7.50925 14.5047 7.60728 14.4667 7.69868C14.4286 7.79007 14.3728 7.87302 14.3025 7.94274Z" fill="black"/>
<path d="M7.41 10.5902L7.2975 10.5002L7.1625 10.4252L7.0275 10.3877C6.90701 10.3636 6.78243 10.3695 6.66473 10.4048C6.54703 10.4401 6.43981 10.5038 6.3525 10.5902C6.27831 10.6582 6.22169 10.7431 6.1875 10.8377C6.14782 10.9275 6.12732 11.0246 6.12732 11.1227C6.12732 11.2209 6.14782 11.318 6.1875 11.4077C6.26809 11.588 6.41228 11.7322 6.5925 11.8127C6.68267 11.8512 6.77949 11.8716 6.8775 11.8727C6.97786 11.8709 7.07701 11.8505 7.17 11.8127C7.26141 11.7765 7.34345 11.7201 7.41 11.6477C7.48015 11.5793 7.53621 11.4978 7.575 11.4077C7.61086 11.3171 7.62869 11.2203 7.6275 11.1227C7.63003 11.0244 7.60949 10.9268 7.5675 10.8377C7.53314 10.745 7.47945 10.6606 7.41 10.5902ZM2.6325 6.57024C2.73173 6.56983 2.82989 6.54973 2.9213 6.51111C3.0127 6.47249 3.09554 6.41611 3.165 6.34524L6.345 3.16524C6.48469 3.02472 6.56309 2.83463 6.56309 2.63649C6.56309 2.43835 6.48469 2.24826 6.345 2.10774C6.20448 1.96805 6.01439 1.88965 5.81625 1.88965C5.61811 1.88965 5.42802 1.96805 5.2875 2.10774L2.1075 5.28774C1.96781 5.42827 1.8894 5.61835 1.8894 5.81649C1.8894 6.01463 1.96781 6.20472 2.1075 6.34524C2.24597 6.48655 2.43467 6.56743 2.6325 6.57024ZM15.8925 11.6552C15.752 11.5156 15.5619 11.4371 15.3637 11.4371C15.1656 11.4371 14.9755 11.5156 14.835 11.6552L11.655 14.8352C11.5497 14.9397 11.4777 15.073 11.4482 15.2184C11.4186 15.3638 11.4329 15.5146 11.489 15.6519C11.5452 15.7892 11.6409 15.9067 11.7639 15.9896C11.8869 16.0725 12.0317 16.1171 12.18 16.1177C12.2792 16.1173 12.3774 16.0972 12.4688 16.0586C12.5602 16.02 12.643 15.9636 12.7125 15.8927L15.8925 12.7502C15.9674 12.6801 16.0272 12.5953 16.068 12.5011C16.1088 12.4069 16.1299 12.3054 16.1299 12.2027C16.1299 12.1001 16.1088 11.9985 16.068 11.9044C16.0272 11.8102 15.9674 11.7254 15.8925 11.6552ZM16.02 7.41024C16.0215 6.81478 15.7868 6.24302 15.3675 5.82024L12.18 2.63274C11.7508 2.22549 11.1817 1.99845 10.59 1.99845C9.99833 1.99845 9.42921 2.22549 9 2.63274L2.6325 9.00024C2.21115 9.42212 1.97448 9.99399 1.97448 10.5902C1.97448 11.1865 2.21115 11.7584 2.6325 12.1802L5.82 15.3677C6.24188 15.7891 6.81375 16.0258 7.41 16.0258C8.00625 16.0258 8.57812 15.7891 9 15.3677L15.3675 9.00024C15.7868 8.57747 16.0215 8.0057 16.02 7.41024ZM14.3025 7.94274L7.9425 14.3027C7.87278 14.373 7.78983 14.4288 7.69843 14.4669C7.60704 14.505 7.50901 14.5246 7.41 14.5246C7.31099 14.5246 7.21296 14.505 7.12157 14.4669C7.03017 14.4288 6.94722 14.373 6.8775 14.3027L3.6975 11.1227C3.6272 11.053 3.57141 10.9701 3.53333 10.8787C3.49525 10.7873 3.47565 10.6893 3.47565 10.5902C3.47565 10.4912 3.49525 10.3932 3.53333 10.3018C3.57141 10.2104 3.6272 10.1275 3.6975 10.0577L10.0575 3.69774C10.1272 3.62745 10.2102 3.57165 10.3016 3.53357C10.393 3.4955 10.491 3.47589 10.59 3.47589C10.689 3.47589 10.787 3.4955 10.8784 3.53357C10.9698 3.57165 11.0528 3.62745 11.1225 3.69774L14.3025 6.87774C14.3728 6.94747 14.4286 7.03042 14.4667 7.12181C14.5047 7.21321 14.5243 7.31123 14.5243 7.41024C14.5243 7.50925 14.5047 7.60728 14.4667 7.69868C14.4286 7.79007 14.3728 7.87302 14.3025 7.94274Z" fill="url(#paint0_linear_51_85)"/>
<defs>
<linearGradient id="paint0_linear_51_85" x1="16.1299" y1="1.88965" x2="1.02392" y2="2.87707" gradientUnits="userSpaceOnUse">
<stop stop-color="#00AFF3"/>
<stop offset="1" stop-color="#58DCF8"/>
</linearGradient>
</defs>
</svg>
