<svg width="28" height="28" viewBox="0 0 28 28" fill="none" xmlns="http://www.w3.org/2000/svg">
<path fill-rule="evenodd" clip-rule="evenodd" d="M4.5957 0.658104C4.48291 0.671347 4.22639 0.719687 4.02559 0.765507C3.82484 0.811269 3.49162 0.925351 3.28514 1.01898C3.07865 1.11262 2.7551 1.29531 2.56619 1.42498C2.37723 1.55465 2.07471 1.81474 1.89383 2.00295C1.71301 2.19115 1.47992 2.47205 1.3758 2.62715C1.27174 2.78219 1.10937 3.07937 1.01504 3.2875C0.920703 3.49557 0.797832 3.84332 0.742051 4.06017C0.647891 4.42615 0.640625 5.13871 0.640625 13.976C0.640625 22.8133 0.647891 23.5258 0.742051 23.8918C0.797832 24.1087 0.920059 24.4551 1.01369 24.6616C1.10732 24.868 1.29055 25.1939 1.4208 25.3858C1.55111 25.5777 1.84104 25.9037 2.06516 26.1102C2.28922 26.3168 2.62291 26.576 2.80666 26.6863C2.99041 26.7967 3.34807 26.9603 3.60148 27.05C3.8549 27.1396 4.28111 27.2414 4.54865 27.2762C4.86365 27.3171 6.29533 27.3335 8.60938 27.3227L12.1836 27.3061L12.1998 26.4125L12.2159 25.519H8.47672C5.28635 25.519 4.68623 25.5056 4.38828 25.428C4.19621 25.378 3.92082 25.2678 3.77627 25.1831C3.63172 25.0984 3.39441 24.9175 3.24893 24.781C3.10344 24.6446 2.89982 24.3923 2.79641 24.2203C2.69305 24.0483 2.56783 23.7505 2.51809 23.5584C2.43852 23.2509 2.42773 22.1059 2.42773 13.976C2.42773 5.84605 2.43852 4.70107 2.51809 4.39357C2.56783 4.2015 2.69305 3.90367 2.79641 3.7317C2.89982 3.55973 3.10344 3.30742 3.24893 3.17096C3.39441 3.03449 3.63172 2.85361 3.77627 2.76889C3.92082 2.68422 4.19621 2.574 4.38828 2.52396C4.67627 2.44896 5.15656 2.43303 7.12754 2.43303H9.51758V6.06877C9.51758 9.14629 9.53076 9.72994 9.60336 9.87039C9.65053 9.96162 9.77 10.1042 9.86879 10.1874C9.96752 10.2705 10.1388 10.3555 10.2494 10.3762C10.3974 10.404 10.9157 10.2983 12.2122 9.97597L13.9739 9.53799L15.7283 9.97674C17.0546 10.3084 17.5335 10.406 17.6909 10.3765C17.8053 10.355 17.9901 10.2575 18.1014 10.1597C18.2139 10.0609 18.3303 9.8865 18.3635 9.76709C18.401 9.63209 18.4233 8.22847 18.4235 5.9926L18.4238 2.43303L20.8115 2.43373C22.6181 2.43426 23.2705 2.45348 23.4922 2.51277C23.6533 2.5559 23.9279 2.66371 24.1025 2.75242C24.2771 2.84107 24.5616 3.05535 24.7348 3.22855C24.9213 3.415 25.12 3.69361 25.2219 3.91141C25.3166 4.11367 25.421 4.42117 25.4538 4.59461C25.4905 4.78797 25.5137 6.32412 25.5137 8.56562V12.2212L26.4072 12.2051L27.3008 12.1889L27.3007 8.3217C27.3007 4.81146 27.2911 4.41666 27.1967 4.04435C27.1395 3.81877 26.9697 3.38371 26.8192 3.07756C26.5859 2.60283 26.4634 2.43853 25.9858 1.96094C25.508 1.48322 25.344 1.36082 24.8691 1.12756C24.563 0.977206 24.1411 0.808163 23.9316 0.751972C23.5775 0.656933 22.8931 0.649198 14.1758 0.641874C9.01953 0.637538 4.7085 0.644862 4.5957 0.658104ZM16.6074 5.39201C16.6074 7.72064 16.5918 8.35082 16.5342 8.35006C16.4939 8.34953 15.9487 8.21769 15.3226 8.05709C14.6964 7.89648 14.0956 7.76506 13.9874 7.76506C13.8792 7.76506 13.2652 7.89689 12.623 8.05803C11.9809 8.21916 11.4281 8.35099 11.3947 8.35099C11.3536 8.35099 11.334 7.39515 11.334 5.39201V2.43303H13.9707H16.6074V5.39201ZM19.0391 13.1835C18.8135 13.2252 18.4692 13.3013 18.2739 13.3527C18.0787 13.4041 17.7227 13.5268 17.4829 13.6255C17.2431 13.7242 16.8623 13.9135 16.6367 14.0462C16.4111 14.1788 16.1211 14.3677 15.9922 14.4658C15.8633 14.564 15.6055 14.774 15.4192 14.9327C15.233 15.0912 14.9089 15.4352 14.699 15.6971C14.4891 15.959 14.2007 16.3718 14.0581 16.6145C13.9156 16.8571 13.7173 17.2526 13.6175 17.4934C13.5177 17.7341 13.3698 18.1947 13.2887 18.517C13.1806 18.9464 13.1331 19.3221 13.1107 19.9233C13.0882 20.5284 13.1053 20.8966 13.1759 21.327C13.2286 21.6479 13.3514 22.1489 13.4489 22.4403C13.5464 22.7317 13.7532 23.2118 13.9085 23.507C14.0638 23.8023 14.3384 24.24 14.5188 24.4797C14.6991 24.7193 15.0426 25.1015 15.2821 25.3289C15.5216 25.5565 15.9059 25.8749 16.1362 26.0366C16.3664 26.1982 16.8015 26.4506 17.1031 26.5973C17.4047 26.744 17.8825 26.931 18.165 27.0129C18.4474 27.0947 18.8651 27.1924 19.0931 27.23C19.3213 27.2676 19.8242 27.2985 20.2109 27.2988C20.5977 27.299 21.1118 27.265 21.3535 27.223C21.5952 27.1811 22.0435 27.0678 22.3496 26.9712C22.6558 26.8746 23.1413 26.6748 23.4286 26.5272C23.7159 26.3796 24.151 26.1103 24.3954 25.9288C24.6399 25.7473 25.0094 25.4292 25.2167 25.2219C25.4239 25.0147 25.741 24.6464 25.9214 24.4036C26.1018 24.1606 26.3581 23.7519 26.4909 23.4954C26.6238 23.2387 26.8133 22.7987 26.912 22.5175C27.0106 22.2363 27.1362 21.7749 27.191 21.4921C27.2511 21.1819 27.2913 20.6874 27.2923 20.2455C27.2932 19.8427 27.263 19.3265 27.2251 19.0984C27.1873 18.8704 27.0883 18.4485 27.0051 18.1609C26.9219 17.8734 26.7358 17.3969 26.5916 17.102C26.4473 16.8071 26.1961 16.3762 26.0333 16.1443C25.8705 15.9125 25.5499 15.5256 25.3209 15.2845C25.0919 15.0434 24.6956 14.6887 24.4402 14.4963C24.1849 14.3039 23.6826 14.0036 23.324 13.829C22.9653 13.6544 22.4448 13.4466 22.1673 13.3672C21.8897 13.2878 21.4593 13.1945 21.2109 13.1599C20.9624 13.1254 20.4644 13.0995 20.1042 13.1024C19.7439 13.1053 19.2646 13.1418 19.0391 13.1835ZM21.4556 15.035C21.689 15.0943 22.0391 15.2071 22.2337 15.2857C22.4282 15.3643 22.7346 15.517 22.9145 15.6251C23.0945 15.7332 23.416 15.9674 23.6291 16.1455C23.8422 16.3236 24.1554 16.64 24.3252 16.8486C24.495 17.0573 24.7515 17.4537 24.8951 17.7296C25.0387 18.0055 25.2279 18.467 25.3154 18.755C25.4575 19.2224 25.4749 19.3734 25.4772 20.1576C25.479 20.8002 25.4527 21.1442 25.3793 21.4367C25.3241 21.6568 25.199 22.0286 25.1015 22.263C25.0038 22.4973 24.7996 22.8776 24.6475 23.1079C24.4955 23.3383 24.1865 23.7136 23.9609 23.942C23.7354 24.1704 23.3745 24.4745 23.1592 24.6177C22.9438 24.761 22.5967 24.9557 22.3879 25.0504C22.179 25.1451 21.7884 25.2827 21.5197 25.3561C21.1063 25.4692 20.8962 25.4888 20.1523 25.4844C19.3773 25.4798 19.2126 25.4607 18.7589 25.323C18.4759 25.2371 18.0408 25.0645 17.7921 24.9394C17.5433 24.8144 17.177 24.5895 16.9779 24.4399C16.7789 24.2903 16.4804 24.0195 16.3147 23.8382C16.1491 23.6569 15.9135 23.3611 15.7912 23.1808C15.669 23.0005 15.5025 22.7211 15.4212 22.56C15.3399 22.3988 15.207 22.0561 15.1258 21.7983C15.0446 21.5404 14.9482 21.0789 14.9116 20.7727C14.8644 20.3765 14.8626 20.0637 14.9053 19.6887C14.9383 19.3987 15.0191 18.9683 15.0847 18.7321C15.1504 18.4959 15.2943 18.1203 15.4044 17.8974C15.5146 17.6745 15.6996 17.3492 15.8156 17.1744C15.9316 16.9997 16.1987 16.6828 16.409 16.4704C16.6194 16.2579 16.9464 15.9788 17.1358 15.8503C17.3251 15.7218 17.6616 15.5254 17.8836 15.414C18.1056 15.3026 18.4927 15.1551 18.7436 15.0862C18.9946 15.0173 19.3747 14.9394 19.5883 14.9131C19.8018 14.8868 20.2139 14.8792 20.5039 14.8962C20.7939 14.9131 21.2222 14.9756 21.4556 15.035ZM20.7239 19.2634L19.7138 20.2735L19.141 19.7029L18.5683 19.1323L17.9361 19.7665L17.3039 20.4006L18.2239 21.2959C18.7299 21.7883 19.2258 22.2411 19.3259 22.3021C19.426 22.3631 19.5944 22.4131 19.7001 22.4133C19.8059 22.4134 19.9773 22.3766 20.081 22.3315C20.1847 22.2864 20.8888 21.6274 21.6457 20.867L23.0219 19.4844L22.4085 18.8689C22.0711 18.5303 21.7813 18.2533 21.7645 18.2533C21.7477 18.2533 21.2794 18.7078 20.7239 19.2634ZM5.61816 21.1483C5.5199 21.1911 5.36937 21.3095 5.28359 21.4114C5.19787 21.5133 5.11004 21.6907 5.08848 21.8056C5.06691 21.9206 5.07939 22.1151 5.11619 22.2379C5.15299 22.3608 5.27311 22.5402 5.38309 22.6368C5.49307 22.7334 5.66621 22.8307 5.76781 22.853C5.86941 22.8753 6.04332 22.8766 6.1543 22.8557C6.26521 22.8349 6.44738 22.7376 6.559 22.6396C6.67994 22.5335 6.78705 22.3684 6.82397 22.2315C6.85801 22.1051 6.86791 21.9061 6.84606 21.7894C6.82145 21.6583 6.72307 21.494 6.589 21.3599C6.46836 21.2393 6.28637 21.1257 6.17955 21.1043C6.07385 21.0831 5.94447 21.0669 5.89209 21.0681C5.83971 21.0694 5.71648 21.1054 5.61816 21.1483ZM9.22467 21.1316C9.1441 21.1638 9.01637 21.2478 8.94072 21.3184C8.86514 21.389 8.76629 21.5179 8.721 21.6049C8.6757 21.692 8.63867 21.866 8.63867 21.9917C8.63867 22.1324 8.68941 22.295 8.77051 22.4141C8.84305 22.5206 8.96891 22.6571 9.05018 22.7172C9.1315 22.7775 9.29264 22.842 9.40824 22.8608C9.55326 22.8844 9.70232 22.8579 9.88871 22.7754C10.0557 22.7015 10.2043 22.5815 10.2775 22.4614C10.3548 22.3347 10.3961 22.165 10.3961 21.974C10.3961 21.7834 10.3548 21.6134 10.2779 21.4872C10.2096 21.3753 10.0549 21.2458 9.91186 21.1809C9.77557 21.119 9.59814 21.0695 9.51758 21.0708C9.43701 21.0722 9.30518 21.0995 9.22467 21.1316Z" fill="url(#paint0_linear_51_249)"/>
<defs>
<linearGradient id="paint0_linear_51_249" x1="27.3008" y1="0.640634" x2="-0.980117" y2="2.48588" gradientUnits="userSpaceOnUse">
<stop stop-color="#00AFF3"/>
<stop offset="1" stop-color="#58DCF8"/>
</linearGradient>
</defs>
</svg>
